<?xml version="1.0" encoding="UTF-8"?>
<svg version="1.1" xmlns="http://www.w3.org/2000/svg" width="173" height="133">
<path d="M0 0 C23.76 0 47.52 0 72 0 C72 14.19 72 28.38 72 43 C56 35 56 35 49 31 C49 24.73 49 18.46 49 12 C47.13859375 12.12761719 45.2771875 12.25523438 43.359375 12.38671875 C25.95887672 13.20398146 14.16921356 11.39997645 0 1 C0 0.67 0 0.34 0 0 Z " fill="#673DE6" transform="translate(53,47)"/>
<path d="M0 0 C6.75 2.25 6.75 2.25 10.0859375 4.1640625 C10.72063965 4.5245166 11.3553418 4.8849707 12.00927734 5.25634766 C13.18031006 5.93383057 13.18031006 5.93383057 14.375 6.625 C18.149375 8.790625 18.149375 8.790625 22 11 C22 17.27 22 23.54 22 30 C24.79210937 29.80857422 24.79210937 29.80857422 27.640625 29.61328125 C45.04112328 28.79601854 56.83078644 30.60002355 71 41 C71 41.33 71 41.66 71 42 C47.57 42 24.14 42 0 42 C0 28.14 0 14.28 0 0 Z " fill="#673CE5" transform="translate(48,0)"/>
<path d="M0 0 C3.47598164 0.57977557 6.29104698 1.46521105 9.42578125 3.06640625 C10.14419189 3.42935791 10.86260254 3.79230957 11.6027832 4.16625977 C12.94409302 4.85739868 12.94409302 4.85739868 14.3125 5.5625 C18.6128125 7.7590625 18.6128125 7.7590625 23 10 C23 19.57 23 29.14 23 39 C21.02 38.34 19.04 37.68 17 37 C16.26023926 36.7635376 15.52047852 36.5270752 14.75830078 36.28344727 C9.09503899 34.31504491 3.54265555 32.02178853 0 27 C-2.18799753 18.24938168 -1.03106949 8.86626456 0 0 Z " fill="#673DE6" transform="translate(102,0)"/>
<path d="M0 0 C2.475 0.99 2.475 0.99 5 2 C5.70229736 2.2364624 6.40459473 2.4729248 7.12817383 2.71655273 C12.82331965 4.68092658 18.41665711 6.97208069 22 12 C24.19888756 20.74482776 23.03063882 30.13743888 22 39 C18.43254081 37.87600601 15.15937361 36.69800125 11.9140625 34.8359375 C11.27936035 34.4754834 10.6446582 34.1150293 9.99072266 33.74365234 C9.21003418 33.29199707 8.4293457 32.8403418 7.625 32.375 C5.10875 30.93125 2.5925 29.4875 0 28 C0 18.76 0 9.52 0 0 Z " fill="#663CE5" transform="translate(48,50)"/>
<path d="M0 0 C3.6005691 0.41603214 5.03190346 1.78987933 7.25 4.5625 C7.77078125 5.20316406 8.2915625 5.84382813 8.828125 6.50390625 C9.21484375 6.99761719 9.6015625 7.49132812 10 8 C10.33 5.69 10.66 3.38 11 1 C12.65614657 0.61781233 14.32457024 0.28604898 16 0 C17 1 17 1 17.11352539 2.94946289 C17.10828857 3.7821167 17.10305176 4.61477051 17.09765625 5.47265625 C17.09443359 6.37177734 17.09121094 7.27089844 17.08789062 8.19726562 C17.07951172 9.14279297 17.07113281 10.08832031 17.0625 11.0625 C17.05798828 12.01189453 17.05347656 12.96128906 17.04882812 13.93945312 C17.0370011 16.29303065 17.02052025 18.64648477 17 21 C14.70703125 21.28125 14.70703125 21.28125 12 21 C10.19921875 19.03125 10.19921875 19.03125 8.6875 16.5 C8.17574219 15.6646875 7.66398437 14.829375 7.13671875 13.96875 C6.76160156 13.3190625 6.38648437 12.669375 6 12 C5.67 14.97 5.34 17.94 5 21 C3.02 21 1.04 21 -1 21 C-1.02888146 17.68751813 -1.04675799 14.37506833 -1.0625 11.0625 C-1.07087891 10.11697266 -1.07925781 9.17144531 -1.08789062 8.19726562 C-1.09111328 7.29814453 -1.09433594 6.39902344 -1.09765625 5.47265625 C-1.10289307 4.64000244 -1.10812988 3.80734863 -1.11352539 2.94946289 C-1 1 -1 1 0 0 Z " fill="#673DE5" transform="translate(94,112)"/>
<path d="M0 0 C3.87306363 0.05001086 5.07162507 0.25958093 8.4375 2.4375 C10.25 5.375 10.25 5.375 10.0625 9 C9.794375 10.11375 9.52625 11.2275 9.25 12.375 C9.25 15.75523517 10.12455622 18.20968937 11.25 21.375 C8.5 21.75 8.5 21.75 5.25 21.375 C2.875 18.375 2.875 18.375 1.25 15.375 C0.92 17.355 0.59 19.335 0.25 21.375 C-1.73 21.375 -3.71 21.375 -5.75 21.375 C-5.77888146 18.06251813 -5.79675799 14.75006833 -5.8125 11.4375 C-5.82087891 10.49197266 -5.82925781 9.54644531 -5.83789062 8.57226562 C-5.84111328 7.67314453 -5.84433594 6.77402344 -5.84765625 5.84765625 C-5.85289307 5.01500244 -5.85812988 4.18234863 -5.86352539 3.32446289 C-5.64263617 -0.46865639 -3.2971625 0.12681394 0 0 Z M0.25 5.375 C0.25 6.695 0.25 8.015 0.25 9.375 C1.57 9.375 2.89 9.375 4.25 9.375 C3.92 8.055 3.59 6.735 3.25 5.375 C2.26 5.375 1.27 5.375 0.25 5.375 Z " fill="#673DE6" transform="translate(161.75,111.625)"/>
<path d="M0 0 C2.61645154 3.7707684 2.86024497 6.16854798 2.59765625 10.6796875 C2.125 13.0625 2.125 13.0625 0.1875 16.1875 C-3.95652246 18.72465661 -7.13754892 18.95506325 -11.875 18.0625 C-14.875 16.625 -14.875 16.625 -16.875 14.0625 C-18.17498205 9.70756014 -18.43004744 6.30474903 -16.5625 2.125 C-11.73530886 -3.77490028 -6.49777462 -4.37893507 0 0 Z M-11.875 4.0625 C-12.39623941 8.79024483 -12.39623941 8.79024483 -10.625 13.0625 C-8.90985848 14.26416449 -8.90985848 14.26416449 -6.8125 13.875 C-4.68787474 13.12779664 -4.68787474 13.12779664 -2.875 11.0625 C-2.41808487 6.86771925 -2.41808487 6.86771925 -4.1875 3.1875 C-7.38041448 1.05889035 -8.83134701 2.03339801 -11.875 4.0625 Z " fill="#673CE5" transform="translate(38.875,114.9375)"/>
<path d="M0 0 C1.79244141 0.01740234 1.79244141 0.01740234 3.62109375 0.03515625 C5.41740234 0.04869141 5.41740234 0.04869141 7.25 0.0625 C8.17683594 0.07410156 9.10367188 0.08570312 10.05859375 0.09765625 C10.38859375 1.74765625 10.71859375 3.39765625 11.05859375 5.09765625 C8.08859375 5.09765625 5.11859375 5.09765625 2.05859375 5.09765625 C2.05859375 6.08765625 2.05859375 7.07765625 2.05859375 8.09765625 C4.69859375 8.09765625 7.33859375 8.09765625 10.05859375 8.09765625 C10.05859375 9.74765625 10.05859375 11.39765625 10.05859375 13.09765625 C7.41859375 13.09765625 4.77859375 13.09765625 2.05859375 13.09765625 C2.05859375 14.08765625 2.05859375 15.07765625 2.05859375 16.09765625 C5.02859375 16.09765625 7.99859375 16.09765625 11.05859375 16.09765625 C11.05859375 17.74765625 11.05859375 19.39765625 11.05859375 21.09765625 C8.74615583 21.12451037 6.43363105 21.14398466 4.12109375 21.16015625 C2.83332031 21.17175781 1.54554688 21.18335938 0.21875 21.1953125 C-2.94140625 21.09765625 -2.94140625 21.09765625 -3.94140625 20.09765625 C-4.04000756 18.6941689 -4.07219562 17.28585148 -4.07421875 15.87890625 C-4.07550781 15.02941406 -4.07679688 14.17992188 -4.078125 13.3046875 C-4.07425781 12.41136719 -4.07039062 11.51804687 -4.06640625 10.59765625 C-4.07027344 9.70433594 -4.07414063 8.81101562 -4.078125 7.890625 C-4.07683594 7.04113281 -4.07554687 6.19164063 -4.07421875 5.31640625 C-4.07309082 4.53201172 -4.07196289 3.74761719 -4.07080078 2.93945312 C-3.85098982 -0.18932783 -3.18049386 0.10559409 0 0 Z " fill="#673DE6" transform="translate(140.94140625,111.90234375)"/>
<path d="M0 0 C1.051875 -0.00386719 1.051875 -0.00386719 2.125 -0.0078125 C4 0.125 4 0.125 6 1.125 C5.67 2.775 5.34 4.425 5 6.125 C2.03 6.125 -0.94 6.125 -4 6.125 C-4 8.765 -4 11.405 -4 14.125 C-1.525 15.115 -1.525 15.115 1 16.125 C1 14.145 1 12.165 1 10.125 C2.65614657 9.74281233 4.32457024 9.41104898 6 9.125 C7 10.125 7 10.125 7.1328125 12.375 C7.13023437 13.2825 7.12765625 14.19 7.125 15.125 C7.12886719 16.48625 7.12886719 16.48625 7.1328125 17.875 C7 20.125 7 20.125 6 21.125 C0.80731428 21.65646616 -3.57797489 21.97821507 -8.125 19.25 C-11.00672564 15.98404427 -11.39127434 13.60865348 -11.359375 9.23046875 C-10.72418186 5.50906547 -8.66020984 3.72187151 -6 1.125 C-3.75487738 0.00243869 -2.48543351 -0.00913762 0 0 Z " fill="#673DE5" transform="translate(126,111.875)"/>
<path d="M0 0 C1.65 0 3.3 0 5 0 C5 2.31 5 4.62 5 7 C6.98 7 8.96 7 11 7 C11 4.69 11 2.38 11 0 C12.65 0 14.3 0 16 0 C16 6.6 16 13.2 16 20 C14.35 20 12.7 20 11 20 C11 17.36 11 14.72 11 12 C9.02 12 7.04 12 5 12 C5 14.64 5 17.28 5 20 C3.35 20 1.7 20 0 20 C0 13.4 0 6.8 0 0 Z " fill="#663CE5" transform="translate(0,113)"/>
<path d="M0 0 C0.33 0.66 0.66 1.32 1 2 C0.67 2.99 0.34 3.98 0 5 C-2.31 4.67 -4.62 4.34 -7 4 C-7 4.99 -7 5.98 -7 7 C-6.2575 7.0825 -5.515 7.165 -4.75 7.25 C-1.35769685 8.17517359 -0.02064301 9.12446956 2 12 C1.85205998 15.6985004 1.64194427 17.35805573 -1 20 C-3.6015625 20.1953125 -3.6015625 20.1953125 -6.625 20.125 C-8.12933594 20.09792969 -8.12933594 20.09792969 -9.6640625 20.0703125 C-10.43492188 20.04710937 -11.20578125 20.02390625 -12 20 C-12.33 18.68 -12.66 17.36 -13 16 C-10.10765685 15.17361624 -8.11257569 15 -5 15 C-5 14.34 -5 13.68 -5 13 C-5.94875 12.54625 -6.8975 12.0925 -7.875 11.625 C-11 10 -11 10 -13 8 C-13.37130746 5.10380178 -13.46583421 3.62111229 -11.6875 1.25 C-7.78930143 -1.6375545 -4.52812694 -0.92239623 0 0 Z " fill="#673CE5" transform="translate(58,113)"/>
<path d="M0 0 C5.61 0 11.22 0 17 0 C17 1.32 17 2.64 17 4 C15.02 4 13.04 4 11 4 C11 9.28 11 14.56 11 20 C9.02 20 7.04 20 5 20 C5.33 14.72 5.66 9.44 6 4 C4.02 4 2.04 4 0 4 C0 2.68 0 1.36 0 0 Z " fill="#673CE5" transform="translate(62,113)"/>
<path d="M0 0 C1.98 0 3.96 0 6 0 C6 6.6 6 13.2 6 20 C4.02 20 2.04 20 0 20 C0 13.4 0 6.8 0 0 Z " fill="#663DE5" transform="translate(82,113)"/>
</svg>
