<?xml version="1.0" standalone="no"?>
<!DOCTYPE svg PUBLIC "-//W3C//DTD SVG 20010904//EN"
 "http://www.w3.org/TR/2001/REC-SVG-20010904/DTD/svg10.dtd">
<svg version="1.0" xmlns="http://www.w3.org/2000/svg"
 width="640.000000pt" height="400.000000pt" viewBox="0 0 640.000000 400.000000"
 preserveAspectRatio="xMidYMid meet">

<g transform="translate(0.000000,400.000000) scale(0.100000,-0.100000)"
fill="#000000" stroke="none">
<path d="M180 2321 l0 -281 468 0 c532 0 494 -11 307 91 l-100 54 -195 5 -195
5 -3 127 -3 127 -52 29 c-29 16 -91 51 -139 77 l-88 47 0 -281z"/>
<path d="M920 2422 l0 -179 118 -68 c64 -38 127 -75 140 -83 l22 -14 0 189 0
189 -140 73 -140 73 0 -180z"/>
<path d="M2405 2241 c-86 -39 -135 -119 -138 -224 -4 -157 74 -256 216 -273
170 -20 287 99 275 280 -7 109 -56 185 -140 220 -52 22 -162 20 -213 -3z m173
-91 c48 -29 76 -98 69 -166 -10 -95 -57 -144 -140 -144 -81 0 -127 60 -127
165 0 129 102 204 198 145z"/>
<path d="M2970 2242 c-71 -35 -98 -116 -64 -187 19 -40 40 -55 124 -89 35 -14
72 -33 82 -43 21 -19 24 -56 5 -71 -23 -20 -90 -23 -147 -8 -30 8 -56 13 -57
12 -1 -1 -9 -19 -18 -39 l-16 -38 37 -15 c51 -21 160 -29 212 -15 23 7 57 25
74 40 28 25 32 36 36 93 4 61 2 67 -27 100 -21 25 -57 46 -111 68 -96 39 -120
69 -84 104 18 18 98 22 140 6 32 -12 29 -14 49 33 l16 38 -35 14 c-50 21 -172
20 -216 -3z"/>
<path d="M4874 2241 c-49 -23 -107 -88 -122 -140 -15 -49 -15 -153 -1 -202 16
-50 62 -105 111 -130 51 -26 155 -33 233 -17 l60 13 3 123 3 122 -56 0 -55 0
0 -84 c0 -80 -1 -84 -24 -90 -31 -8 -84 2 -114 21 -58 36 -79 161 -42 239 34
68 120 93 212 60 l37 -13 16 40 c9 22 12 43 8 47 -38 34 -203 41 -269 11z"/>
<path d="M5850 2251 l-35 -6 0 -245 0 -245 52 -3 52 -3 3 93 3 93 30 0 c26 0
36 -9 70 -62 22 -34 48 -75 57 -92 16 -29 20 -31 78 -31 l60 0 -21 43 c-12 23
-39 68 -61 100 l-39 57 40 38 c63 59 68 156 12 213 -50 49 -182 71 -301 50z
m200 -101 c25 -13 36 -54 22 -85 -12 -26 -74 -48 -120 -43 -25 3 -27 6 -30 62
-4 85 -1 90 58 83 27 -3 59 -11 70 -17z"/>
<path d="M1697 2243 c-4 -3 -7 -116 -7 -250 l0 -243 55 0 55 0 0 105 0 105
100 0 100 0 0 -105 0 -105 55 0 55 0 0 250 0 250 -55 0 -55 0 0 -95 0 -95
-100 0 -100 0 0 95 0 95 -48 0 c-27 0 -52 -3 -55 -7z"/>
<path d="M3330 2205 l0 -45 75 0 75 0 0 -205 0 -205 55 0 55 0 0 205 0 205 75
0 75 0 0 45 0 45 -205 0 -205 0 0 -45z"/>
<path d="M3870 2000 l0 -250 55 0 55 0 0 250 0 250 -55 0 -55 0 0 -250z"/>
<path d="M4160 2000 l0 -250 50 0 50 0 0 160 c0 100 4 160 10 160 14 0 117
-141 175 -239 l48 -81 43 0 44 0 0 250 0 250 -50 0 -50 0 0 -140 c0 -77 -4
-140 -8 -140 -4 0 -37 42 -74 93 -36 50 -85 113 -108 140 -38 43 -46 47 -86
47 l-44 0 0 -250z"/>
<path d="M5320 2000 l0 -250 175 0 175 0 0 45 0 45 -120 0 -120 0 0 65 0 65
100 0 100 0 0 45 0 45 -100 0 -100 0 0 50 0 49 113 3 112 3 3 43 3 42 -170 0
-171 0 0 -250z"/>
<path d="M270 1956 c0 -2 55 -35 123 -72 l122 -69 200 -5 200 -5 3 -127 3
-127 87 -47 c48 -25 111 -60 140 -76 l52 -29 0 280 0 281 -465 0 c-256 0 -465
-2 -465 -4z"/>
<path d="M180 1731 l0 -179 132 -68 c72 -38 135 -70 140 -72 4 -2 8 74 8 170
l0 173 -134 78 c-73 42 -136 77 -139 77 -4 0 -7 -81 -7 -179z"/>
</g>
</svg>
