<?xml version="1.0" standalone="no"?>
<!DOCTYPE svg PUBLIC "-//W3C//DTD SVG 20010904//EN"
 "http://www.w3.org/TR/2001/REC-SVG-20010904/DTD/svg10.dtd">
<svg version="1.0" xmlns="http://www.w3.org/2000/svg"
 width="418.000000pt" height="84.000000pt" viewBox="0 0 418.000000 84.000000"
 preserveAspectRatio="xMidYMid meet">

<g transform="translate(0.000000,84.000000) scale(0.100000,-0.100000)"
fill="#000000" stroke="none">
<path d="M622 713 c-14 -5 -52 -62 -90 -133 -14 -25 -30 -52 -37 -60 -6 -8
-25 -40 -41 -70 -37 -68 -57 -103 -64 -110 -3 -3 -16 -26 -30 -52 -29 -57 -21
-95 25 -117 26 -13 38 -11 146 24 l118 39 120 -37 c132 -41 163 -41 185 2 18
37 10 59 -80 213 -43 73 -94 162 -115 198 -59 103 -86 124 -137 103z"/>
<path d="M3084 678 c-11 -18 -12 -339 -1 -361 7 -15 11 -16 23 -6 10 8 14 35
14 98 0 79 2 90 23 109 29 27 67 28 98 3 22 -17 25 -29 29 -118 4 -78 8 -98
20 -98 12 0 15 19 15 109 l0 108 -34 28 c-26 22 -42 28 -72 26 -22 -2 -48 -11
-59 -21 -20 -18 -20 -17 -20 47 0 44 -5 69 -14 77 -11 9 -16 9 -22 -1z"/>
<path d="M3412 667 c-15 -17 1 -42 23 -33 18 6 17 37 -1 43 -6 2 -16 -2 -22
-10z"/>
<path d="M1270 567 c-13 -7 -31 -24 -39 -38 -12 -22 -12 -29 0 -55 11 -22 28
-34 74 -50 46 -17 61 -26 63 -44 2 -12 -1 -27 -7 -33 -15 -15 -77 -10 -105 9
-14 8 -30 13 -36 9 -22 -14 -8 -34 35 -50 82 -32 158 0 158 65 0 40 -19 58
-85 81 -61 20 -78 39 -58 64 14 17 55 17 108 0 18 -6 22 -4 22 13 0 30 -88 50
-130 29z"/>
<path d="M1495 568 c-3 -8 -4 -88 -3 -178 3 -139 5 -165 18 -165 11 0 16 15
18 62 l3 63 21 -20 c71 -66 190 -15 204 88 8 61 -24 128 -73 148 -46 19 -97
13 -129 -17 l-22 -21 -4 23 c-4 26 -25 37 -33 17z m180 -44 c32 -21 46 -73 34
-119 -20 -70 -98 -88 -151 -35 -27 28 -30 36 -25 76 9 82 78 120 142 78z"/>
<path d="M1896 569 c-30 -8 -48 -27 -40 -41 3 -4 16 -3 30 2 62 24 134 1 134
-43 0 -20 -4 -22 -40 -19 -91 9 -150 -23 -150 -81 0 -41 15 -63 51 -76 43 -15
68 -14 104 5 27 14 31 14 42 -1 23 -32 33 -5 33 91 0 134 -18 162 -105 169
-16 1 -43 -2 -59 -6z m103 -135 c37 -8 40 -29 11 -67 -25 -31 -70 -43 -102
-26 -43 23 -49 48 -18 79 21 21 54 25 109 14z"/>
<path d="M2225 570 c-64 -28 -102 -100 -85 -159 22 -78 74 -117 145 -108 40 4
94 33 95 50 0 16 -32 19 -49 3 -10 -9 -34 -16 -55 -16 -54 0 -96 43 -96 100 0
33 6 48 29 71 33 33 67 37 112 13 38 -19 68 -12 48 12 -29 35 -103 53 -144 34z"/>
<path d="M2538 572 c-9 -4 -30 -19 -46 -34 -84 -74 -23 -238 87 -238 41 0 100
25 107 45 10 25 -4 30 -35 12 -59 -34 -151 -7 -151 45 0 20 -2 20 97 18 93 -2
113 9 104 52 -11 48 -31 76 -67 93 -34 16 -68 18 -96 7z m112 -71 c19 -37 12
-41 -70 -41 -61 0 -80 3 -80 14 0 22 39 64 63 68 28 5 73 -17 87 -41z"/>
<path d="M2842 565 c-50 -22 -61 -74 -24 -109 10 -8 39 -23 66 -33 27 -10 54
-25 59 -35 26 -41 -52 -64 -112 -34 -34 18 -65 5 -41 -17 18 -17 75 -37 106
-37 58 0 104 52 89 100 -7 23 -60 60 -86 60 -9 0 -28 9 -43 21 -22 17 -24 24
-15 41 9 16 18 19 47 14 76 -11 85 -11 89 0 4 13 -56 44 -84 44 -10 -1 -33 -7
-51 -15z"/>
<path d="M3423 573 c-17 -6 -18 -258 -2 -269 6 -3 15 0 20 7 11 17 12 256 2
262 -5 2 -14 2 -20 0z"/>
<path d="M3555 568 c-3 -8 -4 -88 -3 -178 3 -139 5 -165 18 -165 11 0 16 16
20 64 5 63 5 63 24 43 29 -33 97 -39 141 -12 39 24 55 48 62 93 11 69 -20 130
-80 155 -42 18 -70 15 -110 -12 -36 -24 -36 -24 -39 -4 -4 25 -26 36 -33 16z
m180 -44 c27 -18 47 -68 41 -101 -11 -57 -42 -83 -99 -83 -27 0 -41 7 -62 32
-23 27 -26 39 -22 77 9 77 81 115 142 75z"/>
</g>
</svg>
