<?xml version="1.0" encoding="UTF-8"?>
<svg version="1.1" xmlns="http://www.w3.org/2000/svg" width="516" height="448">
<path d="M0 0 C26.26334208 -0.75905613 52.92658347 8.34249921 72.46484375 25.94140625 C73.20863281 26.64910156 73.95242188 27.35679688 74.71875 28.0859375 C76.8812689 30.17941181 76.8812689 30.17941181 79.36328125 31.99609375 C82.34905222 34.50414137 84.63627694 37.34264888 86.96484375 40.44140625 C87.38572266 40.98474609 87.80660156 41.52808594 88.24023438 42.08789062 C91.16968708 45.93478433 93.57864362 49.88815351 95.90234375 54.12890625 C96.65837891 55.48822266 96.65837891 55.48822266 97.4296875 56.875 C111.12225868 83.00846688 112.36809024 112.8857467 103.65234375 140.81640625 C99.0003267 153.86137987 92.67830484 164.567058 83.90234375 175.12890625 C82.94908203 176.32966797 82.94908203 176.32966797 81.9765625 177.5546875 C70.4260354 191.47962703 54.93321271 199.2816858 39.12841797 207.45849609 C35.24418544 209.46969021 31.37737486 211.51275053 27.51196289 213.55981445 C23.98001182 215.42495958 20.4413726 217.27723448 16.90234375 219.12890625 C21.97423253 229.32644037 27.10861544 239.48905365 32.32958984 249.61108398 C33.40353703 251.69372031 34.47529078 253.77747517 35.546875 255.86132812 C36.25890667 257.24359671 36.9711449 258.6257589 37.68359375 260.0078125 C38.0293042 260.67930328 38.37501465 261.35079407 38.73120117 262.04263306 C40.52401297 265.51168205 42.34568883 268.96155292 44.21484375 272.39013672 C44.77310852 273.41807594 44.77310852 273.41807594 45.34265137 274.46678162 C46.05300011 275.77032958 46.76864449 277.07101018 47.49035645 278.36830139 C49.02274929 281.18210932 49.90234375 282.86970425 49.90234375 286.12890625 C49.0064856 286.59562744 49.0064856 286.59562744 48.0925293 287.07177734 C41.02703922 290.75347932 33.96420288 294.44024531 26.90234375 298.12890625 C26.04447266 298.5765332 25.18660156 299.02416016 24.30273438 299.48535156 C14.19193331 304.76433246 4.14004999 310.13802965 -5.83618164 315.66796875 C-11.75735212 318.92764016 -17.76077278 321.98860894 -23.81259155 324.99554443 C-31.3829366 328.75849654 -38.89796804 332.62646699 -46.41015625 336.50390625 C-47.12455872 336.87230621 -47.83896118 337.24070618 -48.57501221 337.62026978 C-68.27767111 347.75303949 -68.27767111 347.75303949 -87.78515625 358.25390625 C-94.14445159 361.73872135 -100.60454637 365.01120312 -107.12939453 368.17382812 C-108.934886 369.04992371 -110.73343769 369.94028362 -112.53125 370.83203125 C-136.08478281 381.81813136 -164.85201631 382.63209576 -189.28417969 374.07739258 C-217.62204362 363.62671559 -239.16460495 344.40554907 -252.07666016 317.05517578 C-262.14906165 294.09054531 -263.62893199 267.06048841 -256.09765625 243.12890625 C-255.87803223 242.43087891 -255.6584082 241.73285156 -255.43212891 241.01367188 C-245.1675407 209.4862035 -222.60470341 188.37273498 -193.91015625 173.37890625 C-192.70469358 172.7403087 -191.49961454 172.10098646 -190.29492188 171.4609375 C-186.90553574 169.66475074 -183.50409317 167.89257726 -180.09765625 166.12890625 C-178.60371338 165.35450195 -178.60371338 165.35450195 -177.07958984 164.56445312 C-176.18191895 164.10619141 -175.28424805 163.64792969 -174.359375 163.17578125 C-173.57908936 162.77713867 -172.79880371 162.37849609 -171.99487305 161.96777344 C-170.09765625 161.12890625 -170.09765625 161.12890625 -168.09765625 161.12890625 C-176.45179309 144.27333919 -176.45179309 144.27333919 -185.09765625 127.56640625 C-185.48848389 126.82543701 -185.87931152 126.08446777 -186.28198242 125.32104492 C-188.08129114 121.9166236 -189.88896934 118.51706264 -191.71240234 115.12548828 C-193.41164683 111.96434022 -195.0987158 108.79689943 -196.78515625 105.62890625 C-197.32720703 104.63044678 -197.86925781 103.6319873 -198.42773438 102.60327148 C-198.92080078 101.67329346 -199.41386719 100.74331543 -199.921875 99.78515625 C-200.36619873 98.95822266 -200.81052246 98.13128906 -201.26831055 97.27929688 C-202.09765625 95.12890625 -202.09765625 95.12890625 -201.09765625 92.12890625 C-198.78522248 90.78976099 -196.52974204 89.62602235 -194.1171875 88.49609375 C-192.64616592 87.7845226 -191.17564174 87.07192244 -189.70556641 86.35839844 C-188.94278381 85.99129761 -188.18000122 85.62419678 -187.394104 85.24597168 C-183.74981178 83.47327171 -180.14864377 81.61891943 -176.546875 79.76171875 C-175.83515137 79.39594223 -175.12342773 79.03016571 -174.39013672 78.65330505 C-172.1878786 77.52133019 -169.98645496 76.38774555 -167.78515625 75.25390625 C-167.01874817 74.85950348 -166.25234009 74.46510071 -165.46270752 74.05874634 C-156.23127694 69.30763129 -147.00961517 64.54001326 -137.83276367 59.68408203 C-131.4376889 56.30020628 -125.01904823 52.96253646 -118.59765625 49.62890625 C-111.29494345 45.83707085 -103.99920341 42.03321961 -96.72265625 38.19140625 C-87.86945333 33.51802561 -78.9845022 28.9064226 -70.08666992 24.31860352 C-64.95631257 21.66947222 -59.83911389 19.0081184 -54.78125 16.22265625 C-37.27551844 6.61733592 -19.96806957 1.22708807 0 0 Z M-42.09765625 55.12890625 C-43.30072836 55.74065865 -44.50401896 56.35198156 -45.70751953 56.96289062 C-59.03494124 63.73509663 -72.2452363 70.70028608 -85.33789062 77.91748047 C-92.06416282 81.60942876 -98.88262791 85.07825837 -105.76074219 88.47729492 C-114.62690963 92.86363104 -123.36630625 97.48126958 -132.09765625 102.12890625 C-132.85143555 102.52980469 -133.60521484 102.93070313 -134.38183594 103.34375 C-138.62317654 105.60037256 -142.86172593 107.86214533 -147.09765625 110.12890625 C-146.10820825 116.65836488 -142.7448364 122.08856539 -139.72265625 127.87890625 C-139.13226563 129.04035156 -138.541875 130.20179688 -137.93359375 131.3984375 C-137.36125 132.50058594 -136.78890625 133.60273438 -136.19921875 134.73828125 C-135.67666504 135.74858398 -135.15411133 136.75888672 -134.61572266 137.79980469 C-133.24944975 140.42391814 -133.24944975 140.42391814 -130.09765625 141.12890625 C-127.74526677 140.1182053 -125.57998856 139.05290679 -123.33984375 137.83203125 C-122.67735626 137.4825946 -122.01486877 137.13315796 -121.33230591 136.77313232 C-119.2072591 135.65115254 -117.08952043 134.51623964 -114.97265625 133.37890625 C-95.35372474 122.87684785 -77.02702131 116.46327262 -54.73046875 123.13671875 C-32.65364818 130.98048324 -21.25775955 146.37882757 -11.38671875 166.63671875 C-10.94070313 167.5508252 -10.4946875 168.46493164 -10.03515625 169.40673828 C-9.17316744 171.1945313 -8.32626789 172.98969388 -7.49609375 174.79248047 C-7.109375 175.60475098 -6.72265625 176.41702148 -6.32421875 177.25390625 C-5.98986816 177.97835937 -5.65551758 178.7028125 -5.31103516 179.44921875 C-4.21046995 181.25616341 -4.21046995 181.25616341 -2.25561523 182.00488281 C0.62270831 182.17030745 2.11730289 181.34152338 4.65625 179.98828125 C5.58421387 179.50004883 6.51217773 179.01181641 7.46826172 178.50878906 C8.45713379 177.97092773 9.44600586 177.43306641 10.46484375 176.87890625 C11.48465332 176.33331055 12.50446289 175.78771484 13.55517578 175.22558594 C16.68024857 173.54326561 19.79273381 171.83961442 22.90234375 170.12890625 C23.82354004 169.62617188 24.74473633 169.1234375 25.69384766 168.60546875 C39.30265498 161.24069325 39.30265498 161.24069325 50.90234375 151.12890625 C51.68351562 150.28392578 51.68351562 150.28392578 52.48046875 149.421875 C60.33962015 139.92884739 65.92491162 127.20952106 67.90234375 115.12890625 C68.06605469 114.20207031 68.22976563 113.27523437 68.3984375 112.3203125 C70.5057315 96.30922305 65.45370514 79.41710419 55.90625 66.5703125 C43.40806205 51.34347533 27.65687505 42.09888721 7.90234375 40.12890625 C-10.77224125 38.45833635 -26.00863535 46.8873644 -42.09765625 55.12890625 Z M-100.09765625 172.12890625 C-105.12342467 179.78659023 -105.82713517 187.17715777 -105.09765625 196.12890625 C-103.17867223 203.74704162 -98.2304687 210.56261439 -91.5625 214.703125 C-83.85112605 218.66670307 -76.91461945 220.55663214 -68.3125 218.4453125 C-59.27898697 215.45070914 -54.24559914 211.73143237 -49.72265625 203.31640625 C-45.9082007 195.05515224 -44.94623615 187.78441951 -48.09765625 179.12890625 C-52.0391682 170.59973286 -57.31228792 165.06932021 -65.91015625 161.25390625 C-79.52493308 156.76903859 -90.96255503 161.95871262 -100.09765625 172.12890625 Z M-150.09765625 196.12890625 C-152.33426678 197.08017449 -154.43414369 198.08930573 -156.58203125 199.21484375 C-157.23407532 199.55005035 -157.88611938 199.88525696 -158.55792236 200.23062134 C-159.94867911 200.94817833 -161.33735627 201.66977771 -162.72412109 202.39501953 C-164.79231496 203.47500764 -166.86798842 204.53926624 -168.9453125 205.6015625 C-191.61595932 217.29936177 -209.8216879 229.84802263 -218.1015625 255.203125 C-222.63425469 271.95437876 -221.72086969 288.8326884 -213.09765625 304.12890625 C-212.59363281 305.04027344 -212.08960938 305.95164062 -211.5703125 306.890625 C-202.76117621 321.75215611 -188.90821887 332.70507398 -172.09765625 337.12890625 C-164.8453872 338.64196958 -157.50551562 339.8034238 -150.09765625 339.12890625 C-149.10507813 339.04511719 -148.1125 338.96132813 -147.08984375 338.875 C-134.35662001 337.06614159 -123.36456204 330.92134863 -112.03723145 325.12139893 C-109.97670347 324.06701396 -107.91383103 323.01731916 -105.85058594 321.96826172 C-90.6781306 314.2474333 -75.55927922 306.42258266 -60.51171875 298.4609375 C-41.77755592 288.54960442 -22.92822115 278.85539636 -4.09765625 269.12890625 C-5.41684073 264.85964679 -7.05839013 261.02711829 -9.13671875 257.07421875 C-9.71679688 255.965625 -10.296875 254.85703125 -10.89453125 253.71484375 C-11.4978125 252.57273437 -12.10109375 251.430625 -12.72265625 250.25390625 C-13.63917969 248.5059375 -13.63917969 248.5059375 -14.57421875 246.72265625 C-16.07806127 243.85595644 -17.58598643 240.99148404 -19.09765625 238.12890625 C-22.83808546 238.7116633 -25.59513271 239.75983407 -28.87109375 241.640625 C-29.77053711 242.14867676 -30.66998047 242.65672852 -31.59667969 243.18017578 C-33.02028809 243.99010986 -33.02028809 243.99010986 -34.47265625 244.81640625 C-55.02838877 256.19030928 -73.22586238 262.42216988 -96.6171875 256.19140625 C-105.65162859 253.32269728 -112.72963902 248.9296933 -120.09765625 243.12890625 C-120.7628125 242.62101562 -121.42796875 242.113125 -122.11328125 241.58984375 C-132.63054023 232.39952866 -138.60769731 216.45521444 -144.51855469 204.17749023 C-144.9571582 203.27458252 -145.39576172 202.3716748 -145.84765625 201.44140625 C-146.234375 200.63316406 -146.62109375 199.82492188 -147.01953125 198.9921875 C-147.96339405 196.96678833 -147.96339405 196.96678833 -150.09765625 196.12890625 Z " fill="#111543" transform="translate(359.09765625,33.87109375)"/>
<path d="M0 0 C0 0.66 0 1.32 0 2 C-0.99 2.66 -1.98 3.32 -3 4 C-3.73343428 7.06556598 -3.73343428 7.06556598 -4 10 C-4.99 10.33 -5.98 10.66 -7 11 C-7.33 10.34 -7.66 9.68 -8 9 C-8.556875 9.556875 -9.11375 10.11375 -9.6875 10.6875 C-10.450625 11.450625 -11.21375 12.21375 -12 13 C-13.2684375 14.3303125 -13.2684375 14.3303125 -14.5625 15.6875 C-17 18 -17 18 -20 19 C-20 20.32 -20 21.64 -20 23 C-21.65 23.33 -23.3 23.66 -25 24 C-21.38425686 18.77725991 -17.4200473 14.22705062 -12.9375 9.75 C-12.4312207 9.24307617 -11.92494141 8.73615234 -11.40332031 8.21386719 C-3.07017585 0 -3.07017585 0 0 0 Z " fill="#0E1137" transform="translate(145,220)"/>
<path d="M0 0 C0.33 0 0.66 0 1 0 C1 3.3 1 6.6 1 10 C0.34 9.34 -0.32 8.68 -1 8 C-1.63615234 8.59748047 -1.63615234 8.59748047 -2.28515625 9.20703125 C-9.91155583 16.09593285 -17.04450294 18.15846259 -27.3125 18.0625 C-28.56675781 18.05347656 -29.82101562 18.04445312 -31.11328125 18.03515625 C-32.06589844 18.02355469 -33.01851563 18.01195312 -34 18 C-34 17.34 -34 16.68 -34 16 C-32.78376953 16.06960937 -32.78376953 16.06960937 -31.54296875 16.140625 C-22.33779479 16.44067724 -14.10078467 15.37890493 -6.5625 9.6875 C-3.6343899 6.61655527 -1.92101549 3.76814578 0 0 Z " fill="#0D102F" transform="translate(309,236)"/>
<path d="M0 0 C0.33 0.66 0.66 1.32 1 2 C-0.53644198 4.50682639 -1.41388235 5.80462745 -4.25 6.75 C-7.5091762 7.04628875 -10.72829968 7 -14 7 C-15.15048828 7.26103516 -15.15048828 7.26103516 -16.32421875 7.52734375 C-19.45834072 8.08096237 -22.14969017 7.87530537 -25.3125 7.5625 C-26.38113281 7.46066406 -27.44976562 7.35882813 -28.55078125 7.25390625 C-29.76314453 7.12822266 -29.76314453 7.12822266 -31 7 C-31 6.34 -31 5.68 -31 5 C-30.37996094 5.03480469 -29.75992188 5.06960938 -29.12109375 5.10546875 C-19.27715257 5.40637525 -9.07565567 3.96844259 0 0 Z " fill="#0D1133" transform="translate(229,367)"/>
<path d="M0 0 C0 0.66 0 1.32 0 2 C0.7425 1.7525 1.485 1.505 2.25 1.25 C3.1575 1.1675 4.065 1.085 5 1 C6.3565164 2.30973998 7.68557638 3.64802142 9 5 C11.6223966 6.21266895 14.25157346 7.08385782 17 8 C17 8.99 17 9.98 17 11 C13.34977017 9.55595304 9.73635495 8.03834341 6.125 6.5 C-0.91542592 3.5736616 -7.4402871 1.79575925 -15 1 C-10.45434407 -2.03043728 -5.04206825 -1.68068942 0 0 Z " fill="#0C0F30" transform="translate(382,74)"/>
<path d="M0 0 C0.66 0.33 1.32 0.66 2 1 C0.7391988 2.03319813 -0.53403258 3.05124379 -1.8125 4.0625 C-2.87404297 4.91521484 -2.87404297 4.91521484 -3.95703125 5.78515625 C-4.63121094 6.18605469 -5.30539062 6.58695312 -6 7 C-6.99 6.67 -7.98 6.34 -9 6 C-9.33 6.99 -9.66 7.98 -10 9 C-11.7421875 9.87890625 -11.7421875 9.87890625 -13.875 10.5625 C-16.70926461 11.48808088 -18.45158826 12.30105884 -21 14 C-21.99 14 -22.98 14 -24 14 C-24.33 14.66 -24.66 15.32 -25 16 C-25.66 15.34 -26.32 14.68 -27 14 C-23.19670957 11.97767565 -19.38812416 9.96582669 -15.57421875 7.96362305 C-14.27680215 7.28062681 -12.98089248 6.59476017 -11.68652344 5.90600586 C-9.82873361 4.91807704 -7.96581835 3.94050361 -6.1015625 2.96484375 C-4.98088379 2.3730835 -3.86020508 1.78132324 -2.70556641 1.17163086 C-1.81272949 0.78499268 -0.91989258 0.39835449 0 0 Z " fill="#101233" transform="translate(324,318)"/>
<path d="M0 0 C0.33 0.66 0.66 1.32 1 2 C-6.1266915 6.16987269 -13.29263767 10.26318115 -20.625 14.0625 C-22.31496094 14.94615234 -22.31496094 14.94615234 -24.0390625 15.84765625 C-27.03156176 17.01228327 -28.10227897 17.23683215 -31 16 C-29.52853516 15.27296875 -29.52853516 15.27296875 -28.02734375 14.53125 C-18.59324391 9.85186116 -9.265097 5.00528229 0 0 Z " fill="#0F1233" transform="translate(387,200)"/>
<path d="M0 0 C0.33 0 0.66 0 1 0 C1.02578125 0.68964844 1.0515625 1.37929687 1.078125 2.08984375 C1.4871991 8.86745777 2.85503299 14.00676098 6 20 C6.66759051 21.33287101 7.33452727 22.66607036 8 24 C6.68 23.67 5.36 23.34 4 23 C4.33 22.34 4.66 21.68 5 21 C4.34 21 3.68 21 3 21 C2.67 20.01 2.34 19.02 2 18 C1.01 17.34 0.02 16.68 -1 16 C-2.78397196 10.5108555 -1.30157787 5.44296198 0 0 Z " fill="#101333" transform="translate(253,219)"/>
<path d="M0 0 C-2.64850992 2.64850992 -5.66206447 4.33103223 -9 6 C-9.99 5.67 -10.98 5.34 -12 5 C-12.33 5.99 -12.66 6.98 -13 8 C-19.02694363 11.18404569 -19.02694363 11.18404569 -22.23046875 10.578125 C-22.81441406 10.38734375 -23.39835938 10.1965625 -24 10 C-20.57114059 8.12951067 -17.13067035 6.28149404 -13.6875 4.4375 C-12.71103516 3.90447266 -11.73457031 3.37144531 -10.72851562 2.82226562 C-9.79072266 2.32275391 -8.85292969 1.82324219 -7.88671875 1.30859375 C-7.02264404 0.84251709 -6.15856934 0.37644043 -5.26831055 -0.10375977 C-3 -1 -3 -1 0 0 Z " fill="#101234" transform="translate(263,159)"/>
<path d="M0 0 C0.33 0 0.66 0 1 0 C1.17015625 1.09957031 1.3403125 2.19914062 1.515625 3.33203125 C2.90413865 11.92680425 4.56979639 19.9381509 8 28 C7.34 28 6.68 28 6 28 C5.54625 26.88625 5.0925 25.7725 4.625 24.625 C3.27534014 21.03800992 3.27534014 21.03800992 1 19 C-0.04449911 15.86650268 0.06576355 15.01031744 1 12 C0.34 11.67 -0.32 11.34 -1 11 C-0.67 7.37 -0.34 3.74 0 0 Z " fill="#0E0F2F" transform="translate(138,310)"/>
<path d="M0 0 C1.32 0.66 2.64 1.32 4 2 C-2.27 4.97 -8.54 7.94 -15 11 C-15.33 9.35 -15.66 7.7 -16 6 C-13.525 6.99 -13.525 6.99 -11 8 C-10.67 7.01 -10.34 6.02 -10 5 C-8.35965807 4.27095914 -6.68698082 3.61344757 -5 3 C-4.154375 2.4225 -3.30875 1.845 -2.4375 1.25 C-1.2309375 0.63125 -1.2309375 0.63125 0 0 Z " fill="#0E1236" transform="translate(381,331)"/>
<path d="M0 0 C0.598125 0.33 1.19625 0.66 1.8125 1 C4.05386471 2.20787988 4.05386471 2.20787988 7 2 C9 3.8125 9 3.8125 11 6 C11.5775 6.53625 12.155 7.0725 12.75 7.625 C14 9 14 9 14 11 C15.32 11.33 16.64 11.66 18 12 C17.67 12.66 17.34 13.32 17 14 C10.19256003 10.01486165 4.77488087 6.32349089 0 0 Z " fill="#0D1031" transform="translate(234,272)"/>
<path d="M0 0 C0.66 0.66 1.32 1.32 2 2 C-1.45484098 3.83997197 -4.9144248 5.67083882 -8.375 7.5 C-9.35984375 8.02464844 -10.3446875 8.54929688 -11.359375 9.08984375 C-12.30039063 9.58613281 -13.24140625 10.08242187 -14.2109375 10.59375 C-15.51490479 11.28500977 -15.51490479 11.28500977 -16.84521484 11.99023438 C-19 13 -19 13 -21 13 C-20.67 12.01 -20.34 11.02 -20 10 C-18.47745953 9.30793615 -16.94599945 8.63209622 -15.38671875 8.02734375 C-12.17614802 6.64537959 -9.12900497 4.98317055 -6.0625 3.3125 C-4.91910156 2.68988281 -3.77570313 2.06726563 -2.59765625 1.42578125 C-1.74042969 0.95527344 -0.88320312 0.48476562 0 0 Z " fill="#0F1135" transform="translate(235,130)"/>
<path d="M0 0 C6.93302093 -0.22731216 13.2168636 0.57997892 20 2 C20 2.33 20 2.66 20 3 C13.42150508 3.95494281 7.58183362 3.8931507 1 3 C0.67 2.01 0.34 1.02 0 0 Z " fill="#0D1030" transform="translate(368,35)"/>
<path d="M0 0 C-0.33 0.66 -0.66 1.32 -1 2 C-2.32 2 -3.64 2 -5 2 C-5.33 2.66 -5.66 3.32 -6 4 C-6.33 3.67 -6.66 3.34 -7 3 C-9.0409505 3.06478516 -9.0409505 3.06478516 -11.375 3.375 C-12.56222656 3.51035156 -12.56222656 3.51035156 -13.7734375 3.6484375 C-16.16418493 3.96339554 -16.16418493 3.96339554 -19 5 C-19.99 4.34 -20.98 3.68 -22 3 C-7.40318907 -0.44419134 -7.40318907 -0.44419134 0 0 Z " fill="#0E0F32" transform="translate(354,35)"/>
<path d="M0 0 C3 2 3 2 4.4375 5.5 C5.64397326 9.04753647 5.64397326 9.04753647 8.1875 10.4375 C8.785625 10.623125 9.38375 10.80875 10 11 C10 13.64 10 16.28 10 19 C6.99600559 15.46704136 4.79547138 11.97059208 2.75 7.8125 C2.22921875 6.76707031 1.7084375 5.72164063 1.171875 4.64453125 C0 2 0 2 0 0 Z " fill="#101234" transform="translate(340,272)"/>
<path d="M0 0 C5.60300752 2.31428571 5.60300752 2.31428571 7.375 5.375 C8.00579771 8.02435039 8.15499872 10.28752244 8 13 C0 3.28571429 0 3.28571429 0 0 Z " fill="#0F1034" transform="translate(113,360)"/>
<path d="M0 0 C2.33936818 2.12669835 3.80653848 4.06224856 5 7 C5 7.99 5 8.98 5 10 C2.625 11.75 2.625 11.75 0 13 C-0.66 12.67 -1.32 12.34 -2 12 C-1.6875 10.0625 -1.6875 10.0625 -1 8 C-0.01 7.67 0.98 7.34 2 7 C1.34 4.69 0.68 2.38 0 0 Z " fill="#0B0C31" transform="translate(404,310)"/>
<path d="M0 0 C4 1 4 1 5 2 C5.69258229 3.99117408 6.35747635 5.9921136 7 8 C7.33 8.99 7.66 9.98 8 11 C7.01 11 6.02 11 5 11 C3.35 7.37 1.7 3.74 0 0 Z " fill="#0E1034" transform="translate(159,132)"/>
<path d="M0 0 C0.73075648 2.3140622 1.40138258 4.64828869 2 7 C2.66 7 3.32 7 4 7 C3.67 7.99 3.34 8.98 3 10 C-0.33333333 6.66666667 -3.66666667 3.33333333 -7 0 C-2.25 -1.125 -2.25 -1.125 0 0 Z " fill="#0C0E32" transform="translate(407,86)"/>
<path d="M0 0 C0.66 0 1.32 0 2 0 C3.3726682 1.97321053 4.70427617 3.97543152 6 6 C6.66 6.66 7.32 7.32 8 8 C7.625 10.125 7.625 10.125 7 12 C7.66 12.33 8.32 12.66 9 13 C9 13.66 9 14.32 9 15 C8.34 15 7.68 15 7 15 C4.69 10.05 2.38 5.1 0 0 Z " fill="#111333" transform="translate(214,238)"/>
<path d="M0 0 C0.66 0.33 1.32 0.66 2 1 C0.71186658 1.83878455 -0.58063256 2.67086783 -1.875 3.5 C-2.59429687 3.9640625 -3.31359375 4.428125 -4.0546875 4.90625 C-6 6 -6 6 -8 6 C-8.33 6.66 -8.66 7.32 -9 8 C-9.99 8.33 -10.98 8.66 -12 9 C-12.66 8.34 -13.32 7.68 -14 7 C-11.71296692 5.80274117 -9.42115138 4.61702982 -7.125 3.4375 C-6.14853516 2.92413086 -6.14853516 2.92413086 -5.15234375 2.40039062 C-3.46470143 1.53917109 -1.73420407 0.76313297 0 0 Z " fill="#0D1231" transform="translate(314,45)"/>
<path d="M0 0 C-7.92 3.96 -7.92 3.96 -16 8 C-15.67 7.01 -15.34 6.02 -15 5 C-14.01 5 -13.02 5 -12 5 C-12 4.34 -12 3.68 -12 3 C-10.75823305 2.29773859 -9.50614401 1.61370891 -8.25 0.9375 C-7.55390625 0.55464844 -6.8578125 0.17179687 -6.140625 -0.22265625 C-4 -1 -4 -1 0 0 Z " fill="#0E1133" transform="translate(304,375)"/>
<path d="M0 0 C0.33 0.99 0.66 1.98 1 3 C-1.33214148 4.20628008 -3.49642139 5.1654738 -6 6 C-6.33 6.99 -6.66 7.98 -7 9 C-7 8.34 -7 7.68 -7 7 C-7.99 7.33 -8.98 7.66 -10 8 C-10.33 7.34 -10.66 6.68 -11 6 C-7.37 4.02 -3.74 2.04 0 0 Z " fill="#0D1036" transform="translate(293,334)"/>
<path d="M0 0 C0.99 0.33 1.98 0.66 3 1 C1.54540569 2.64913882 0.08620743 4.29421782 -1.375 5.9375 C-2.18710937 6.85402344 -2.99921875 7.77054688 -3.8359375 8.71484375 C-6 11 -6 11 -8 12 C-8.33 10.68 -8.66 9.36 -9 8 C-7.5459375 7.38125 -7.5459375 7.38125 -6.0625 6.75 C-2.8695627 5.36801952 -2.8695627 5.36801952 -2.25 2.875 C-2.1675 2.25625 -2.085 1.6375 -2 1 C-1.34 0.67 -0.68 0.34 0 0 Z " fill="#0D1033" transform="translate(444,203)"/>
<path d="M0 0 C5.86809507 0.52393706 10.54873741 1.76108858 16 4 C16 4.33 16 4.66 16 5 C12.10549339 5.22254324 9.56735647 4.50204483 6 3 C5.01 3 4.02 3 3 3 C1.3125 1.5 1.3125 1.5 0 0 Z " fill="#0A0D32" transform="translate(296,155)"/>
<path d="M0 0 C1.98 0 3.96 0 6 0 C3.10181338 2.29158942 0.16859456 4.07862366 -3.125 5.75 C-3.99382812 6.19859375 -4.86265625 6.6471875 -5.7578125 7.109375 C-6.49773437 7.40328125 -7.23765625 7.6971875 -8 8 C-8.66 7.67 -9.32 7.34 -10 7 C-7.45357491 3.88770267 -4.74489276 3.22116068 -1 2 C-0.67 1.34 -0.34 0.68 0 0 Z " fill="#121334" transform="translate(298,96)"/>
<path d="M0 0 C0.99 0.33 1.98 0.66 3 1 C2.236875 1.86625 1.47375 2.7325 0.6875 3.625 C-1.75220073 6.53600655 -3.42998277 9.52943561 -5 13 C-5.33 13 -5.66 13 -6 13 C-6.20193076 9.36524624 -5.98634358 7.07883255 -4 4 C-2.70529025 2.62913085 -1.37849103 1.28659163 0 0 Z " fill="#0B0D32" transform="translate(261,201)"/>
<path d="M0 0 C1.32 0 2.64 0 4 0 C4 0.66 4 1.32 4 2 C4.61488281 2.09796875 5.22976562 2.1959375 5.86328125 2.296875 C12.54716981 3.53344768 12.54716981 3.53344768 15.0625 6.125 C15.371875 6.74375 15.68125 7.3625 16 8 C10.18738629 6.26017005 5.16830006 4.1889511 0 1 C0 0.67 0 0.34 0 0 Z " fill="#0A0C2D" transform="translate(150,398)"/>
<path d="M0 0 C4 2 4 2 5.25 5.625 C5.4975 6.73875 5.745 7.8525 6 9 C6.66 9 7.32 9 8 9 C8 9.66 8 10.32 8 11 C7.01 11 6.02 11 5 11 C3.35 7.37 1.7 3.74 0 0 Z " fill="#111433" transform="translate(167,147)"/>
<path d="M0 0 C0.33 0.66 0.66 1.32 1 2 C1.928125 2 2.85625 2 3.8125 2 C5.875 2 7.9375 2 10 2 C7.3144406 4.6855594 4.62378672 5.06049974 1 6 C0.34 4.35 -0.32 2.7 -1 1 C-0.67 0.67 -0.34 0.34 0 0 Z " fill="#0E1233" transform="translate(305,282)"/>
<path d="M0 0 C0.66 0.33 1.32 0.66 2 1 C0.07848152 5.13126473 -2.04250209 8.53258866 -5 12 C-5.66 11.67 -6.32 11.34 -7 11 C-4.69 7.37 -2.38 3.74 0 0 Z " fill="#0B0D2E" transform="translate(118,246)"/>
<path d="M0 0 C0.66 0.33 1.32 0.66 2 1 C2 1.66 2 2.32 2 3 C-4.435 5.97 -4.435 5.97 -11 9 C-10 6 -10 6 -7.125 4.3125 C-4 3 -4 3 -1 3 C-0.67 2.01 -0.34 1.02 0 0 Z " fill="#121333" transform="translate(395,239)"/>
<path d="M0 0 C2.97 0.99 5.94 1.98 9 3 C8.67 3.66 8.34 4.32 8 5 C5.69 4.67 3.38 4.34 1 4 C0.67 2.68 0.34 1.36 0 0 Z " fill="#0D0F32" transform="translate(266,248)"/>
<path d="M0 0 C0 3 0 3 -2.1875 5.625 C-5.00654002 8.00552268 -6.39755548 8.69121904 -10 9 C-10 8.34 -10 7.68 -10 7 C-8.06640625 5.52734375 -8.06640625 5.52734375 -5.5625 3.9375 C-2.6281857 2.16321108 -2.6281857 2.16321108 0 0 Z " fill="#0E1135" transform="translate(404,189)"/>
<path d="M0 0 C1.6266848 0.28211877 3.25132896 0.57602375 4.875 0.875 C5.77992188 1.03742187 6.68484375 1.19984375 7.6171875 1.3671875 C10 2 10 2 12 4 C11.01 4.66 10.02 5.32 9 6 C8.01 5.67 7.02 5.34 6 5 C6 4.01 6 3.02 6 2 C3.03 1.505 3.03 1.505 0 1 C0 0.67 0 0.34 0 0 Z " fill="#0B0D33" transform="translate(388,38)"/>
<path d="M0 0 C2.52394612 3.12488567 4.39701907 6.31314387 6 10 C5.67 10.66 5.34 11.32 5 12 C4.34 12 3.68 12 3 12 C2.896875 11.278125 2.79375 10.55625 2.6875 9.8125 C2.12539114 6.90447434 2.12539114 6.90447434 0.375 4.3125 C-0.07875 3.549375 -0.5325 2.78625 -1 2 C-0.67 1.34 -0.34 0.68 0 0 Z " fill="#121335" transform="translate(383,269)"/>
<path d="M0 0 C0.66 0 1.32 0 2 0 C1.54965877 1.62723299 1.08944646 3.25173664 0.625 4.875 C0.36976563 5.77992188 0.11453125 6.68484375 -0.1484375 7.6171875 C-1 10 -1 10 -3 12 C-3.33 10.35 -3.66 8.7 -4 7 C-3.01 6.67 -2.02 6.34 -1 6 C-1.020625 5.195625 -1.04125 4.39125 -1.0625 3.5625 C-1 1 -1 1 0 0 Z " fill="#0B0E2D" transform="translate(461,172)"/>
<path d="M0 0 C2.91517292 1.07401108 4.77810176 1.77810176 7 4 C6.01 5.32 5.02 6.64 4 8 C2.68 5.36 1.36 2.72 0 0 Z " fill="#0C0F2E" transform="translate(175,163)"/>
<path d="M0 0 C0.33 0 0.66 0 1 0 C2.32854177 5.9180497 1.66464729 8.77729131 -1 14 C-1.33 14 -1.66 14 -2 14 C-1.03644647 4.58997722 -1.03644647 4.58997722 0 0 Z " fill="#0C1033" transform="translate(102,280)"/>
<path d="M0 0 C3.72114571 2.31537955 6.61229661 4.28579473 9 8 C8.01 8.33 7.02 8.66 6 9 C5.731875 8.360625 5.46375 7.72125 5.1875 7.0625 C4.11332248 4.66868314 4.11332248 4.66868314 1 4 C0.3125 1.9375 0.3125 1.9375 0 0 Z " fill="#0D1133" transform="translate(321,165)"/>
<path d="M0 0 C2.31 1.98 4.62 3.96 7 6 C5 7 5 7 2.4375 6.3125 C0 5 0 5 -0.875 2.9375 C-0.91625 2.298125 -0.9575 1.65875 -1 1 C-0.67 0.67 -0.34 0.34 0 0 Z " fill="#0D1134" transform="translate(156,352)"/>
<path d="M0 0 C2.40072955 2.88087546 4.47291037 5.56404834 6 9 C5.34 9 4.68 9 4 9 C3.67 9.66 3.34 10.32 3 11 C2.67 10.01 2.34 9.02 2 8 C2.33 7.34 2.66 6.68 3 6 C2.01 5.67 1.02 5.34 0 5 C0 3.35 0 1.7 0 0 Z " fill="#0B0F2E" transform="translate(146,338)"/>
<path d="M0 0 C-3.00950123 1.61725534 -5.97103608 2.67582623 -9.25 3.625 C-10.58804687 4.01558594 -10.58804687 4.01558594 -11.953125 4.4140625 C-12.62859375 4.60742188 -13.3040625 4.80078125 -14 5 C-13.20703125 3.046875 -13.20703125 3.046875 -12 1 C-7.98287242 0.09046168 -4.10897143 -0.12451429 0 0 Z " fill="#0B0E28" transform="translate(350,75)"/>
<path d="M0 0 C1.09570312 0.10183594 2.19140625 0.20367187 3.3203125 0.30859375 C4.16335938 0.39238281 5.00640625 0.47617188 5.875 0.5625 C5.875 0.8925 5.875 1.2225 5.875 1.5625 C4.10586176 1.78476864 2.33455629 1.98983873 0.5625 2.1875 C-0.42363281 2.30351562 -1.40976562 2.41953125 -2.42578125 2.5390625 C-5.125 2.5625 -5.125 2.5625 -8.125 0.5625 C-5.28943413 -0.85528293 -3.1341294 -0.30007622 0 0 Z " fill="#0D0E2B" transform="translate(290.125,153.4375)"/>
<path d="M0 0 C0.66 0 1.32 0 2 0 C0.68775452 3.93673644 -0.91910327 6.22719294 -4 9 C-4 4.9666466 -2.39120082 3.16482462 0 0 Z " fill="#090C29" transform="translate(451,194)"/>
<path d="M0 0 C0.66 0.33 1.32 0.66 2 1 C0.68 3.64 -0.64 6.28 -2 9 C-2.66 8.01 -3.32 7.02 -4 6 C-3.0022242 3.00667261 -2.2477975 2.05233685 0 0 Z " fill="#0A0B2E" transform="translate(456,185)"/>
<path d="M0 0 C3.60654039 2.40436026 3.85452932 3.94679607 5 8 C4.01 8 3.02 8 2 8 C2 6.68 2 5.36 2 4 C1.34 4 0.68 4 0 4 C0 2.68 0 1.36 0 0 Z " fill="#0F1035" transform="translate(451,83)"/>
<path d="M0 0 C1.22589844 0.01353516 1.22589844 0.01353516 2.4765625 0.02734375 C3.41628906 0.04474609 3.41628906 0.04474609 4.375 0.0625 C4.375 0.3925 4.375 0.7225 4.375 1.0625 C1.075 1.7225 -2.225 2.3825 -5.625 3.0625 C-5.955 2.4025 -6.285 1.7425 -6.625 1.0625 C-4.21954362 -0.14022819 -2.67503047 -0.03821472 0 0 Z " fill="#07091D" transform="translate(361.625,33.9375)"/>
<path d="M0 0 C1.875 0.1875 1.875 0.1875 4 1 C5.25 3.5625 5.25 3.5625 6 6 C3.69 5.01 1.38 4.02 -1 3 C-0.67 2.01 -0.34 1.02 0 0 Z " fill="#0F1235" transform="translate(396,299)"/>
<path d="M0 0 C0.99 0.33 1.98 0.66 3 1 C0.36 2.98 -2.28 4.96 -5 7 C-4 3 -4 3 -2.125 1.1875 C-1.42375 0.795625 -0.7225 0.40375 0 0 Z " fill="#0B0D30" transform="translate(433,216)"/>
<path d="M0 0 C3.77545388 1.09068668 6.47043472 1.9083091 9 5 C5.625 4.75 5.625 4.75 2 4 C0.5625 1.9375 0.5625 1.9375 0 0 Z " fill="#0B0C2D" transform="translate(312,160)"/>
<path d="M0 0 C2.15377564 2.62198774 3.40072174 4.64404172 4 8 C2.35 7.01 0.7 6.02 -1 5 C-0.67 3.35 -0.34 1.7 0 0 Z " fill="#101335" transform="translate(215,153)"/>
<path d="M0 0 C-0.66 1.32 -1.32 2.64 -2 4 C-3.98 4 -5.96 4 -8 4 C-2.7826087 0 -2.7826087 0 0 0 Z " fill="#0F1032" transform="translate(218,96)"/>
<path d="M0 0 C-3.44069624 2.29379749 -4.72290301 3 -9 3 C-9 2.34 -9 1.68 -9 1 C-3.375 -1.125 -3.375 -1.125 0 0 Z " fill="#101230" transform="translate(332,40)"/>
</svg>
