<?xml version="1.0" standalone="no"?>
<!DOCTYPE svg PUBLIC "-//W3C//DTD SVG 20010904//EN"
 "http://www.w3.org/TR/2001/REC-SVG-20010904/DTD/svg10.dtd">
<svg version="1.0" xmlns="http://www.w3.org/2000/svg"
 width="820.000000pt" height="191.000000pt" viewBox="0 0 820.000000 191.000000"
 preserveAspectRatio="xMidYMid meet">

<g transform="translate(0.000000,191.000000) scale(0.100000,-0.100000)"
fill="#000000" stroke="none">
<path d="M1232 1899 c-29 -5 -76 -19 -105 -31 -76 -33 -816 -418 -822 -429 -3
-4 33 -81 79 -171 l85 -163 -122 -65 c-190 -101 -291 -221 -332 -391 -49 -211
43 -442 225 -559 128 -82 312 -107 448 -61 57 20 843 421 867 443 6 6 -20 66
-73 167 -45 87 -82 162 -82 167 0 6 26 22 58 38 232 114 333 216 386 395 20
67 21 207 2 276 -47 177 -184 316 -364 369 -69 20 -183 27 -250 15z m243 -219
c71 -34 139 -107 165 -177 17 -47 21 -74 18 -138 -7 -149 -67 -227 -245 -318
l-111 -57 -51 95 c-87 160 -171 219 -312 220 -73 0 -82 -3 -184 -53 -59 -30
-108 -52 -109 -50 -12 15 -76 137 -76 146 0 10 564 309 650 344 65 26 188 20
255 -12z m-455 -600 c59 -42 78 -135 40 -198 -61 -100 -211 -95 -262 8 -70
138 96 280 222 190z m-401 -262 c66 -118 119 -168 210 -194 92 -28 168 -16
286 44 l101 50 42 -78 43 -79 -109 -58 c-60 -32 -216 -112 -345 -178 l-235
-120 -79 0 c-91 1 -164 29 -230 88 -65 59 -96 128 -101 222 -8 161 57 256 243
353 61 32 111 57 113 56 2 -1 29 -49 61 -106z"/>
<path d="M2970 1304 l0 -196 -38 39 c-61 62 -103 78 -207 78 -78 0 -97 -4
-141 -27 -136 -71 -204 -228 -191 -442 11 -197 99 -330 246 -372 104 -31 212
-6 296 67 20 18 37 30 38 28 2 -2 8 -22 13 -44 l9 -40 98 -3 97 -3 -2 553 -3
553 -107 3 -108 3 0 -197z m-88 -280 c66 -34 103 -131 96 -255 -8 -140 -75
-219 -186 -219 -93 0 -148 55 -172 174 -22 107 15 253 74 291 52 34 130 38
188 9z"/>
<path d="M6507 1493 c-4 -3 -7 -89 -7 -191 l0 -184 -39 35 c-70 63 -96 72
-201 72 -87 0 -100 -3 -149 -30 -170 -94 -238 -374 -150 -611 31 -82 122 -173
198 -197 109 -35 226 -11 317 66 l30 26 12 -45 12 -44 95 0 95 0 0 555 0 555
-103 0 c-57 0 -107 -3 -110 -7z m-102 -466 c77 -38 109 -114 103 -250 -4 -107
-23 -154 -76 -195 -30 -23 -45 -27 -103 -27 -80 0 -110 18 -149 86 -22 40 -25
55 -25 154 0 95 3 117 23 157 24 49 58 77 107 89 33 8 90 2 120 -14z"/>
<path d="M7850 1320 l0 -110 -55 0 -55 0 0 -80 0 -80 55 0 55 0 0 -277 c0
-316 3 -330 75 -367 33 -17 59 -21 155 -21 l115 0 0 80 0 80 -60 5 -60 5 -3
247 -2 246 65 7 65 7 0 74 0 74 -65 0 -65 0 0 110 0 110 -110 0 -110 0 0 -110z"/>
<path d="M4551 1213 c-25 -9 -66 -37 -93 -64 l-48 -48 0 54 0 55 -105 0 -105
0 0 -410 0 -410 110 0 109 0 3 268 c3 237 5 271 22 305 35 71 116 101 204 78
74 -20 77 -31 80 -363 l3 -288 110 0 109 0 0 289 c0 158 -5 313 -10 342 -15
79 -55 136 -119 172 -47 27 -66 31 -140 34 -61 2 -99 -2 -130 -14z"/>
<path d="M5311 1214 c-106 -28 -159 -80 -192 -185 -29 -94 -33 -89 84 -89
l104 0 12 40 c13 45 38 65 93 74 92 16 168 -24 168 -88 0 -43 -24 -61 -90 -71
-240 -35 -277 -46 -336 -97 -108 -95 -104 -297 8 -378 105 -76 269 -64 389 31
l35 28 12 -45 12 -44 90 0 90 0 0 333 c0 330 0 334 -23 378 -46 87 -150 130
-312 128 -49 0 -114 -7 -144 -15z m269 -499 c0 -76 -16 -113 -62 -149 -114
-86 -254 -33 -219 84 15 49 52 75 131 90 30 6 73 17 95 24 22 8 43 14 48 15 4
0 7 -28 7 -64z"/>
<path d="M7139 1216 c-117 -31 -216 -120 -259 -233 -28 -73 -38 -218 -20 -294
51 -217 208 -330 439 -316 113 6 186 34 256 99 200 183 166 571 -61 704 -24
14 -67 32 -96 40 -64 17 -197 17 -259 0z m233 -193 c19 -11 43 -39 58 -68 22
-44 25 -62 25 -155 0 -93 -3 -111 -25 -155 -74 -145 -296 -120 -341 37 -17 57
-17 182 -1 236 16 53 61 106 104 120 46 16 142 8 180 -15z"/>
<path d="M3280 1204 c0 -3 68 -195 150 -427 148 -414 150 -421 138 -461 -18
-54 -55 -79 -118 -80 l-50 -1 0 -87 0 -88 83 0 c177 0 215 32 294 249 43 119
313 892 313 897 0 2 -51 4 -113 4 l-113 0 -84 -295 c-46 -162 -87 -292 -90
-288 -5 6 -106 349 -162 551 l-9 32 -119 0 c-66 0 -120 -3 -120 -6z"/>
</g>
</svg>
