<?xml version="1.0" encoding="UTF-8"?>
<svg version="1.1" xmlns="http://www.w3.org/2000/svg" width="410" height="308">
<path d="M0 0 C1.1153714 -0.00524185 2.2307428 -0.0104837 3.37991333 -0.0158844 C5.72803926 -0.02227817 8.07619734 -0.02100211 10.42431641 -0.01245117 C13.99049723 -0.00394754 17.55507095 -0.03273219 21.12109375 -0.06445312 C23.41406203 -0.0660657 25.7070331 -0.06548652 28 -0.0625 C29.57864334 -0.07935097 29.57864334 -0.07935097 31.18917847 -0.09654236 C41.17589499 -0.00389502 50.06769199 2.37440313 57.39331055 9.43652344 C64.94210459 18.10306874 69.44593957 29.82955776 74.5078125 40.05859375 C75.32774539 41.70852204 76.14805576 43.35826279 76.96875 45.0078125 C78.58388768 48.25542718 80.19748427 51.50379914 81.80957031 54.75292969 C86.99190141 65.19566337 92.17582796 75.63065831 97.6328125 85.93359375 C101.407663 93.09308844 105.10648407 100.28256141 108.671875 107.54882812 C110.03336921 110.31012699 111.42110019 112.86602529 113.1328125 115.43359375 C118.32084905 105.6477481 123.45885851 95.84939936 128.37109375 85.921875 C129.9575796 82.78056267 131.59716489 79.67774996 133.26342773 76.57861328 C137.78798687 68.16105833 141.95073518 59.6069135 146.03491211 50.96777344 C149.5369931 43.59354779 153.25862008 36.36955558 157.13671875 29.1875 C158.99431184 25.73617146 160.69377128 22.22069533 162.3828125 18.68359375 C164.4655349 14.48954012 166.47233059 11.45349133 170.1328125 8.43359375 C171.0403125 7.56734375 171.9478125 6.70109375 172.8828125 5.80859375 C179.07555887 0.82610492 186.3188986 -0.15861661 194.0859375 0.09765625 C204.1712385 1.20962533 211.57223904 5.76385859 218.1328125 13.43359375 C223.30407909 21.00414168 224.7268545 29.43194479 223.1328125 38.43359375 C221.70252027 42.21803226 219.92974636 45.81137094 218.1328125 49.43359375 C217.53904604 50.64110519 216.94529682 51.8486251 216.3515625 53.05615234 C214.36025985 57.08744333 212.34116609 61.10455819 210.3203125 65.12109375 C209.63978255 66.4771175 208.95944328 67.83323696 208.27929688 69.18945312 C206.91837223 71.90279435 205.55599737 74.61540099 204.19287109 77.32763672 C202.79506155 80.11069292 201.40256652 82.89632312 200.01416016 85.68408203 C196.4643335 92.81014597 192.88029107 99.90876469 189.1328125 106.93359375 C182.52011606 119.43002797 176.23253075 132.05351208 170.27709961 144.87695312 C168.09664837 149.53843533 165.75327559 154.00350758 163.1328125 158.43359375 C162.66359375 159.22765625 162.194375 160.02171875 161.7109375 160.83984375 C156.77170573 168.62639736 150.9884078 174.48172865 142.1328125 177.43359375 C136.72919846 178.60521464 131.40861146 178.6117776 125.90625 178.63671875 C124.9221817 178.64241882 123.9381134 178.6481189 122.92422485 178.6539917 C120.84483913 178.66341456 118.76543865 178.66996486 116.68603516 178.67382812 C113.53911544 178.68349757 110.39285946 178.7145324 107.24609375 178.74609375 C79.70976859 178.89328099 79.70976859 178.89328099 70.1328125 169.43359375 C65.13561764 164.34236093 62.166408 158.97042724 59.2578125 152.49609375 C58.38529095 150.61143411 57.5115823 148.72732362 56.63671875 146.84375 C56.21148926 145.92094238 55.78625977 144.99813477 55.34814453 144.04736328 C53.68913413 140.47939112 51.96021872 136.9501808 50.1953125 133.43359375 C49.88094238 132.80654541 49.56657227 132.17949707 49.24267578 131.53344727 C45.97265081 125.05443561 42.58072593 118.63905559 39.20385742 112.21533203 C32.93566807 100.27499147 26.95742945 88.221163 21.27685547 75.98974609 C19.09776573 71.33110578 16.74545752 66.86449848 14.1328125 62.43359375 C13.32052409 64.05817057 12.50825139 65.68275526 11.69604492 67.30737305 C10.9751128 68.74907174 10.25391281 70.19063651 9.5324707 71.63208008 C7.75124293 75.19184203 5.97284368 78.75287552 4.20703125 82.3203125 C-0.00924549 90.82299117 -4.37145167 99.24102802 -8.79125977 107.63964844 C-13.52216042 116.645717 -18.0548407 125.74409954 -22.5625 134.86328125 C-24.31581791 138.39438198 -26.08306912 141.91798331 -27.8671875 145.43359375 C-28.45983398 146.60220947 -28.45983398 146.60220947 -29.06445312 147.79443359 C-30.36448264 150.34566754 -31.67677895 152.89025935 -32.9921875 155.43359375 C-33.40001465 156.23514893 -33.8078418 157.0367041 -34.22802734 157.86254883 C-39.31204938 167.61906831 -45.89518994 174.4666655 -56.6796875 177.87109375 C-68.04866187 180.07598575 -77.44056811 176.76457638 -86.7421875 170.49609375 C-93.41568067 164.01887979 -96.00691916 156.56790632 -96.5546875 147.49609375 C-96.37179094 138.71705879 -93.08700124 132.15954813 -88.98730469 124.53466797 C-87.91881407 122.53043295 -86.902984 120.50946381 -85.90625 118.46875 C-81.96047333 110.39059935 -77.78042017 102.43991758 -73.57641602 94.49389648 C-69.54925966 86.8673487 -65.69552836 79.16129593 -61.8671875 71.43359375 C-56.39142989 60.39362397 -50.90140985 49.37219554 -45.08154297 38.50878906 C-42.13457559 32.99270476 -39.32964103 27.41278006 -36.60473633 21.78369141 C-33.74310336 15.95027441 -30.8519084 10.78777456 -25.6796875 6.74609375 C-24.98488281 6.18535156 -24.29007812 5.62460937 -23.57421875 5.046875 C-16.04136151 0.55759645 -8.61824625 -0.02394756 0 0 Z " fill="#FE8C45" transform="translate(145.8671875,50.56640625)"/>
<path d="M0 0 C9.85644585 5.81277576 14.71956039 19.77958408 19.73193359 29.56201172 C20.94042705 31.88546486 22.19042672 34.18048588 23.45703125 36.47265625 C24.20086704 37.85658481 24.94437404 39.24069015 25.6875 40.625 C26.0386084 41.23867432 26.3897168 41.85234863 26.75146484 42.48461914 C29.42609247 47.57688415 29.45635972 51.58690049 28 57 C26.71956786 60.1687497 25.12653313 63.09495183 23.4375 66.0625 C22.5193374 67.7374621 21.60269223 69.41325681 20.6875 71.08984375 C20.23117188 71.91726074 19.77484375 72.74467773 19.3046875 73.59716797 C17.42337039 77.06197392 15.67505518 80.58652051 13.9375 84.125 C10.90079282 90.26511305 7.74492097 96.33327821 4.49584961 102.36376953 C-0.58366943 111.84666531 -5.32361154 121.51375224 -10.00769043 131.19699097 C-11.33108755 133.92978404 -12.66495934 136.65740107 -14 139.38452148 C-14.6716049 140.76331191 -15.33820776 142.14454909 -16 143.52807617 C-21.45733358 154.91839471 -26.73124892 165.00932159 -39 170 C-45.53108093 172.17702698 -55.17080443 172.38355253 -61.5 169.375 C-63.30078125 168.25 -63.30078125 168.25 -65 167 C-65.61230469 166.5875 -66.22460938 166.175 -66.85546875 165.75 C-73.26396465 160.94021203 -77.20003251 153.1922418 -78.4140625 145.3125 C-79.16550571 133.51205855 -74.43284543 125.14514127 -69 115 C-60.88872002 99.80348143 -53.16751529 84.42441043 -45.5 69 C-38.50685272 54.93218665 -31.50540655 40.88056348 -24.12182617 27.01269531 C-22.28996678 23.56905505 -20.51485249 20.09922591 -18.76126099 16.61514282 C-9.73373003 -1.13182907 -9.73373003 -1.13182907 0 0 Z " fill="#F7540C" transform="translate(130,56)"/>
<path d="M0 0 C0.70181396 0.00757324 1.40362793 0.01514648 2.12670898 0.02294922 C7.93783629 0.20704552 12.28914992 1.2470429 17.125 4.4375 C17.74632812 4.82679687 18.36765625 5.21609375 19.0078125 5.6171875 C25.42006157 10.30840003 29.33867953 17.73758449 30.63671875 25.49609375 C31.070531 36.99959796 25.88766008 46.15192335 20.60839844 55.98388672 C16.24546421 64.11877873 12.11535516 72.36309085 8 80.625 C7.66883179 81.2893808 7.33766357 81.9537616 6.99645996 82.63827515 C4.35087994 87.94622603 1.70703245 93.25504468 -0.9329834 98.56576538 C-1.99326459 100.69804907 -3.0551013 102.82955242 -4.1171875 104.9609375 C-4.43479034 105.60060959 -4.75239319 106.24028168 -5.07962036 106.89933777 C-7.26087633 111.27246053 -9.54431198 115.57955252 -11.875 119.875 C-14.67118843 125.04628958 -17.23435854 130.28285141 -19.6875 135.625 C-22.74963395 142.2265035 -26.00570889 148.70766233 -29.4375 155.125 C-29.87231689 155.96248779 -30.30713379 156.79997559 -30.75512695 157.6628418 C-34.11083519 163.83382118 -37.86124607 168.801169 -44.51953125 171.515625 C-48.92562141 171.36948602 -51.15131901 168.58286634 -54.203125 165.6484375 C-59.22862663 159.99930686 -62.28210857 152.97249211 -65.52050781 146.21142578 C-66.975046 143.23261128 -68.50909923 140.3036172 -70.0546875 137.37109375 C-71.10059435 135.33156732 -72.14489409 133.29121585 -73.1875 131.25 C-73.95404907 129.81696533 -73.95404907 129.81696533 -74.73608398 128.35498047 C-78.02820749 121.72637937 -78.02820749 121.72637937 -77.61230469 118.22753906 C-76.86666837 116.15743023 -75.96388642 114.34733769 -74.875 112.4375 C-74.08996094 110.77074219 -74.08996094 110.77074219 -73.2890625 109.0703125 C-72.40347656 107.33394531 -72.40347656 107.33394531 -71.5 105.5625 C-70.79385296 104.17078486 -70.08815819 102.77884019 -69.3828125 101.38671875 C-68.9899707 100.61376465 -68.59712891 99.84081055 -68.19238281 99.04443359 C-66.69635858 96.08399128 -65.21828203 93.11496019 -63.7421875 90.14453125 C-53.89582018 70.33936555 -53.89582018 70.33936555 -49.5625 62.3125 C-47.05154286 57.65969122 -44.60897109 52.98140803 -42.25 48.25 C-41.93434082 47.62206543 -41.61868164 46.99413086 -41.29345703 46.34716797 C-39.30009211 42.36328986 -37.3580364 38.3585115 -35.45318604 34.33146667 C-34.26186912 31.82269851 -33.05324162 29.32244911 -31.84283447 26.82284546 C-31.24762254 25.58332554 -30.65977775 24.34023605 -30.08001709 23.09341431 C-25.71538489 13.71873851 -20.83967455 6.13412921 -11.3046875 1.46484375 C-7.47719471 0.31833965 -3.96443181 -0.0601612 0 0 Z " fill="#F7540C" transform="translate(336.875,52.5625)"/>
<path d="M0 0 C1.1153714 -0.00524185 2.2307428 -0.0104837 3.37991333 -0.0158844 C5.72803926 -0.02227817 8.07619734 -0.02100211 10.42431641 -0.01245117 C13.99049723 -0.00394754 17.55507095 -0.03273219 21.12109375 -0.06445312 C23.41406203 -0.0660657 25.7070331 -0.06548652 28 -0.0625 C29.57864334 -0.07935097 29.57864334 -0.07935097 31.18917847 -0.09654236 C41.17589499 -0.00389502 50.06769199 2.37440313 57.39331055 9.43652344 C64.94210459 18.10306874 69.44593957 29.82955776 74.5078125 40.05859375 C75.32774539 41.70852204 76.14805576 43.35826279 76.96875 45.0078125 C78.58388768 48.25542718 80.19748427 51.50379914 81.80957031 54.75292969 C86.99190141 65.19566337 92.17582796 75.63065831 97.6328125 85.93359375 C101.407663 93.09308844 105.10648407 100.28256141 108.671875 107.54882812 C110.03336921 110.31012699 111.42110019 112.86602529 113.1328125 115.43359375 C118.32084905 105.6477481 123.45885851 95.84939936 128.37109375 85.921875 C129.9575796 82.78056267 131.59716489 79.67774996 133.26342773 76.57861328 C137.78798687 68.16105833 141.95073518 59.6069135 146.03491211 50.96777344 C149.5369931 43.59354779 153.25862008 36.36955558 157.13671875 29.1875 C158.99431184 25.73617146 160.69377128 22.22069533 162.3828125 18.68359375 C164.4655349 14.48954012 166.47233059 11.45349133 170.1328125 8.43359375 C171.0403125 7.56734375 171.9478125 6.70109375 172.8828125 5.80859375 C179.07555887 0.82610492 186.3188986 -0.15861661 194.0859375 0.09765625 C204.1712385 1.20962533 211.57223904 5.76385859 218.1328125 13.43359375 C223.30407909 21.00414168 224.7268545 29.43194479 223.1328125 38.43359375 C221.70252027 42.21803226 219.92974636 45.81137094 218.1328125 49.43359375 C217.53904604 50.64110519 216.94529682 51.8486251 216.3515625 53.05615234 C214.36025985 57.08744333 212.34116609 61.10455819 210.3203125 65.12109375 C209.63978255 66.4771175 208.95944328 67.83323696 208.27929688 69.18945312 C206.91837223 71.90279435 205.55599737 74.61540099 204.19287109 77.32763672 C202.79506155 80.11069292 201.40256652 82.89632312 200.01416016 85.68408203 C196.4643335 92.81014597 192.88029107 99.90876469 189.1328125 106.93359375 C182.52011606 119.43002797 176.23253075 132.05351208 170.27709961 144.87695312 C168.09664837 149.53843533 165.75327559 154.00350758 163.1328125 158.43359375 C162.66359375 159.22765625 162.194375 160.02171875 161.7109375 160.83984375 C156.77170573 168.62639736 150.9884078 174.48172865 142.1328125 177.43359375 C136.72919846 178.60521464 131.40861146 178.6117776 125.90625 178.63671875 C124.9221817 178.64241882 123.9381134 178.6481189 122.92422485 178.6539917 C120.84483913 178.66341456 118.76543865 178.66996486 116.68603516 178.67382812 C113.53911544 178.68349757 110.39285946 178.7145324 107.24609375 178.74609375 C79.70976859 178.89328099 79.70976859 178.89328099 70.1328125 169.43359375 C65.13561764 164.34236093 62.166408 158.97042724 59.2578125 152.49609375 C58.38529095 150.61143411 57.5115823 148.72732362 56.63671875 146.84375 C56.21148926 145.92094238 55.78625977 144.99813477 55.34814453 144.04736328 C53.68913413 140.47939112 51.96021872 136.9501808 50.1953125 133.43359375 C49.88094238 132.80654541 49.56657227 132.17949707 49.24267578 131.53344727 C45.97265081 125.05443561 42.58072593 118.63905559 39.20385742 112.21533203 C32.93566807 100.27499147 26.95742945 88.221163 21.27685547 75.98974609 C19.09776573 71.33110578 16.74545752 66.86449848 14.1328125 62.43359375 C13.32052409 64.05817057 12.50825139 65.68275526 11.69604492 67.30737305 C10.9751128 68.74907174 10.25391281 70.19063651 9.5324707 71.63208008 C7.75124293 75.19184203 5.97284368 78.75287552 4.20703125 82.3203125 C-0.00924549 90.82299117 -4.37145167 99.24102802 -8.79125977 107.63964844 C-13.52216042 116.645717 -18.0548407 125.74409954 -22.5625 134.86328125 C-24.31581791 138.39438198 -26.08306912 141.91798331 -27.8671875 145.43359375 C-28.45983398 146.60220947 -28.45983398 146.60220947 -29.06445312 147.79443359 C-30.36448264 150.34566754 -31.67677895 152.89025935 -32.9921875 155.43359375 C-33.40001465 156.23514893 -33.8078418 157.0367041 -34.22802734 157.86254883 C-39.31204938 167.61906831 -45.89518994 174.4666655 -56.6796875 177.87109375 C-68.04866187 180.07598575 -77.44056811 176.76457638 -86.7421875 170.49609375 C-93.41568067 164.01887979 -96.00691916 156.56790632 -96.5546875 147.49609375 C-96.37179094 138.71705879 -93.08700124 132.15954813 -88.98730469 124.53466797 C-87.91881407 122.53043295 -86.902984 120.50946381 -85.90625 118.46875 C-81.96047333 110.39059935 -77.78042017 102.43991758 -73.57641602 94.49389648 C-69.54925966 86.8673487 -65.69552836 79.16129593 -61.8671875 71.43359375 C-56.39142989 60.39362397 -50.90140985 49.37219554 -45.08154297 38.50878906 C-42.13457559 32.99270476 -39.32964103 27.41278006 -36.60473633 21.78369141 C-33.74310336 15.95027441 -30.8519084 10.78777456 -25.6796875 6.74609375 C-24.98488281 6.18535156 -24.29007812 5.62460937 -23.57421875 5.046875 C-16.04136151 0.55759645 -8.61824625 -0.02394756 0 0 Z M-30.19140625 14.13671875 C-31.53218692 16.18575234 -32.70411103 18.27797988 -33.8671875 20.43359375 C-34.46144531 21.51640625 -35.05570313 22.59921875 -35.66796875 23.71484375 C-40.12411987 31.92491205 -44.30261711 40.26698242 -48.46847534 48.62689209 C-50.09486682 51.89046254 -51.72223677 55.15354442 -53.34985352 58.41650391 C-53.66453803 59.04736845 -53.97922255 59.67823299 -54.30344296 60.32821465 C-57.04193376 65.81780587 -59.78170688 71.30675659 -62.52216434 76.79536629 C-64.30930619 80.37484371 -66.09568345 83.95469862 -67.88037109 87.53540039 C-69.97531517 91.73825413 -72.07245543 95.94000506 -74.171875 100.140625 C-74.50933495 100.81590366 -74.84679489 101.49118233 -75.1944809 102.18692398 C-79.67337273 111.14164814 -84.2155196 120.0585324 -88.95700073 128.87788391 C-93.84378968 138.00049415 -95.64043981 145.97787382 -93.1796875 156.32421875 C-89.63208402 165.96187486 -83.96384305 171.03081246 -74.8671875 175.43359375 C-74.2071875 175.76359375 -73.5471875 176.09359375 -72.8671875 176.43359375 C-61.91648774 177.25929546 -53.67807168 176.54925786 -44.984375 169.4609375 C-40.20405972 165.19878958 -37.68908135 160.26320082 -34.9296875 154.55859375 C-33.89510489 152.49710784 -32.85994416 150.43591198 -31.82421875 148.375 C-31.07325928 146.8593042 -31.07325928 146.8593042 -30.30712891 145.31298828 C-28.31721751 141.33384027 -26.22240337 137.41503406 -24.1171875 133.49609375 C-18.45252364 122.84107065 -13.07217915 112.06670808 -7.9921875 101.12109375 C-3.61671363 91.71485559 1.2394169 82.57815103 6.1328125 73.43359375 C6.93788291 71.92207888 7.74258076 70.41036552 8.546875 68.8984375 C10.40399555 65.40755397 12.26792742 61.92033524 14.1328125 58.43359375 C21.38365977 72.06120545 28.37982176 85.80202237 35.2578125 99.62109375 C36.20423416 101.51897642 37.15084828 103.41676314 38.09765625 105.31445312 C41.17322048 111.48007353 44.24803214 117.64607164 47.31768799 123.81463623 C48.39579365 125.98103759 49.47512939 128.14682215 50.5546875 130.3125 C50.85988312 130.92683395 51.16507874 131.54116791 51.47952271 132.17411804 C54.2911912 137.80994508 57.26515919 143.35392264 60.265625 148.890625 C62.01742485 152.16035498 63.57081162 155.50645942 65.1328125 158.87109375 C69.14498599 166.90625521 74.23859936 171.99772868 82.45149231 175.56799316 C87.3855021 177.16082112 92.33032195 177.00258031 97.47265625 176.96484375 C98.63479141 176.96867065 99.79692657 176.97249756 100.99427795 176.97644043 C103.44077424 176.97915047 105.88729996 176.97185335 108.33374023 176.95507812 C112.05584054 176.93367696 115.77600639 176.95490292 119.49804688 176.98046875 C121.88542088 176.97782494 124.2727937 176.97269885 126.66015625 176.96484375 C127.76149399 176.97294067 128.86283173 176.9810376 129.99754333 176.98937988 C138.93202648 176.88222685 147.6444139 174.91436498 154.359375 168.625 C161.15242418 160.23094583 165.56096693 149.75830375 170.04272461 140.00488281 C172.90903245 133.79701708 176.04856875 127.7555072 179.28100586 121.73120117 C182.96567201 114.84321653 186.44592841 107.85623717 189.92437744 100.86276245 C193.70592562 93.26118022 197.49746731 85.66456707 201.28833008 78.06762695 C202.31572733 76.00775685 203.34241188 73.94753113 204.3684082 71.88696289 C205.87520508 68.8611848 207.384623 65.83672643 208.89453125 62.8125 C209.34672531 61.90295059 209.79891937 60.99340118 210.26481628 60.05628967 C212.7517292 55.08203131 215.33709367 50.19069359 218.095047 45.36094666 C221.60464227 38.84287621 222.10696757 31.66890915 221.1328125 24.43359375 C218.31470363 15.45780605 213.20396075 9.23198981 205.1328125 4.43359375 C197.53393442 1.2534003 188.0542449 1.06476068 180.11328125 3.2734375 C169.32043288 8.19736371 164.47980145 17.90268565 159.5703125 28.18359375 C159.03212891 29.28703125 158.49394531 30.39046875 157.93945312 31.52734375 C156.86224806 33.73619745 155.7894497 35.94720595 154.72119141 38.16040039 C152.66447751 42.39869784 150.55647576 46.61028919 148.44360352 50.82080078 C147.41184808 52.87739357 146.38803793 54.93797246 145.3671875 57 C141.73124802 64.33885679 137.95136172 71.58887061 134.11523438 78.82446289 C130.28663828 86.07670741 126.62916168 93.40957101 122.98217773 100.75439453 C119.84077599 107.0644012 116.61014511 113.30057674 113.1328125 119.43359375 C111.12722396 116.86781949 109.47384737 114.3606805 108.02812195 111.4445343 C107.63720367 110.6611116 107.2462854 109.8776889 106.84352112 109.07052612 C106.4242485 108.22007721 106.00497589 107.3696283 105.57299805 106.4934082 C105.12377991 105.5904451 104.67456177 104.68748199 104.21173096 103.75715637 C103.23767147 101.79808859 102.26543339 99.83811439 101.29480553 97.87734413 C99.75536058 94.76825568 98.21056526 91.66188016 96.66426086 88.55619812 C92.26896582 79.72589568 87.88376373 70.89059219 83.5012207 62.05395508 C80.81852582 56.64570132 78.12989447 51.2404313 75.43781471 45.83684349 C74.41607892 43.78284423 73.39667458 41.72768343 72.37970543 39.67131996 C70.95226065 36.78501688 69.51732451 33.9025496 68.08081055 31.02075195 C67.66761063 30.18042419 67.25441071 29.34009644 66.82868958 28.4743042 C60.72764267 16.29105645 54.40863749 6.85232142 41.13894653 2.24755859 C36.30917364 0.93981074 31.67038413 0.8613601 26.69140625 0.90234375 C25.11891869 0.89660339 25.11891869 0.89660339 23.5146637 0.89074707 C21.31551137 0.88804482 19.11632597 0.89528662 16.91723633 0.91210938 C13.57494721 0.933564 10.23480203 0.91223753 6.89257812 0.88671875 C4.74218282 0.8893619 2.59178883 0.89448662 0.44140625 0.90234375 C-0.54428848 0.89424683 -1.52998322 0.8861499 -2.54554749 0.87780762 C-13.86782325 1.02891371 -23.17177403 5.1085192 -30.19140625 14.13671875 Z " fill="#FEF1EC" transform="translate(145.8671875,50.56640625)"/>
<path d="M0 0 C1.72192702 2.23850512 3.27916789 4.45863296 4.75 6.875 C8.95219103 12.71137643 14.01062235 16.93106135 21 19 C24.87268099 19.45640703 28.7244643 19.48817478 32.62109375 19.51171875 C34.27094017 19.53864555 34.27094017 19.53864555 35.95411682 19.56611633 C39.44853952 19.62006489 42.94282681 19.65406621 46.4375 19.6875 C48.8144719 19.72068663 51.19142597 19.75517752 53.56835938 19.79101562 C59.3787848 19.87578252 65.18922808 19.94419766 71 20 C71 20.33 71 20.66 71 21 C63.90173677 21.10186657 56.80366381 21.17166082 49.70483398 21.21972656 C47.29265295 21.23977552 44.88052011 21.26702192 42.46850586 21.30175781 C38.99060127 21.35057051 35.51334228 21.37303683 32.03515625 21.390625 C30.96604507 21.41127014 29.8969339 21.43191528 28.79542542 21.45318604 C18.92666192 21.45610808 11.94713691 18.57896233 4.734375 11.87109375 C2.1415205 9.07384757 0.54619407 6.49574311 -1 3 C-0.67 2.01 -0.34 1.02 0 0 Z " fill="#FFECE2" transform="translate(210,207)"/>
<path d="M0 0 C6.38615795 4.63309499 9.82971733 9.35142671 12 17 C13.44936768 27.36945982 11.46726651 35.82743034 5.33203125 44.3046875 C4.89246094 44.86414063 4.45289063 45.42359375 4 46 C3.62479881 41.62265284 4.72857274 39.66922865 7 36 C9.79793291 28.78427828 10.48380141 20.99737035 7.76171875 13.6640625 C5.58240079 9.19727185 3.53465434 5.49219603 0 2 C0 1.34 0 0.68 0 0 Z " fill="#FFF3EF" transform="translate(357,58)"/>
<path d="M0 0 C0.84130935 2.38696288 1.11260419 3.64602434 0.33496094 6.09057617 C-0.02823242 6.81736572 -0.39142578 7.54415527 -0.765625 8.29296875 C-1.16136719 9.08767578 -1.55710937 9.88238281 -1.96484375 10.70117188 C-2.38894531 11.52166016 -2.81304687 12.34214844 -3.25 13.1875 C-3.65863281 14.01958984 -4.06726563 14.85167969 -4.48828125 15.70898438 C-7.61176804 21.87058935 -7.61176804 21.87058935 -11 23 C-9.44347945 17.6462535 -7.0182491 12.99849053 -4.375 8.125 C-3.95476562 7.34125 -3.53453125 6.5575 -3.1015625 5.75 C-2.0718978 3.83107943 -1.03652433 1.91522397 0 0 Z " fill="#FFE5DD" transform="translate(360,102)"/>
<path d="M0 0 C8.41782789 0.21434284 14.18821221 2.90297109 20 9 C19.67 9.99 19.34 10.98 19 12 C18.55011719 11.54109375 18.10023438 11.0821875 17.63671875 10.609375 C12.27514805 5.49493081 7.06717447 3.09157186 0 1 C0 0.67 0 0.34 0 0 Z " fill="#FFEFE5" transform="translate(184,52)"/>
<path d="M0 0 C0.84205836 2.37922307 1.14174203 3.59929592 0.28735352 6.01464844 C-0.09493408 6.7059082 -0.47722168 7.39716797 -0.87109375 8.109375 C-1.28037109 8.86347656 -1.68964844 9.61757812 -2.11132812 10.39453125 C-2.54896484 11.17183594 -2.98660156 11.94914063 -3.4375 12.75 C-3.87126953 13.54277344 -4.30503906 14.33554688 -4.75195312 15.15234375 C-5.82392454 17.10780809 -6.90678122 19.05635908 -8 21 C-8.66 20.67 -9.32 20.34 -10 20 C-6.66666667 13.33333333 -3.33333333 6.66666667 0 0 Z " fill="#FEF7F4" transform="translate(282,121)"/>
<path d="M0 0 C0.33 0 0.66 0 1 0 C1.03738281 0.67804688 1.07476562 1.35609375 1.11328125 2.0546875 C1.58485329 8.73066814 2.81921135 14.67708447 5 21 C2 20 2 20 0.8203125 17.92578125 C-0.19410477 14.30769297 -0.21756036 10.90771435 -0.125 7.1875 C-0.11597656 6.49462891 -0.10695312 5.80175781 -0.09765625 5.08789062 C-0.07426157 3.39177605 -0.03839641 1.69584129 0 0 Z " fill="#FFE2D9" transform="translate(51,193)"/>
<path d="M0 0 C0.88336837 2.4667645 1.1312406 3.63859372 0.22265625 6.140625 C-0.16019531 6.83671875 -0.54304688 7.5328125 -0.9375 8.25 C-1.31777344 8.95640625 -1.69804687 9.6628125 -2.08984375 10.390625 C-2.39019531 10.92171875 -2.69054687 11.4528125 -3 12 C-3.33 12 -3.66 12 -4 12 C-4.61528766 6.92387682 -2.61658349 4.17017994 0 0 Z " fill="#FFE6DD" transform="translate(295,96)"/>
</svg>
