<?xml version="1.0" encoding="UTF-8"?>
<!DOCTYPE svg PUBLIC "-//W3C//DTD SVG 1.1//EN" "http://www.w3.org/Graphics/SVG/1.1/DTD/svg11.dtd">
<!-- Creator: CorelDRAW X5 -->
<svg xmlns="http://www.w3.org/2000/svg" xml:space="preserve" width="135.467mm" height="24.4686mm" style="shape-rendering:geometricPrecision; text-rendering:geometricPrecision; image-rendering:optimizeQuality; fill-rule:evenodd; clip-rule:evenodd"
viewBox="0 0 13547 2447"
 xmlns:xlink="http://www.w3.org/1999/xlink"
 xmlns:svg="http://www.w3.org/2000/svg">
 <defs>
  <style type="text/css">
   <![CDATA[
    .fil4 {fill:#6E6E70;fill-rule:nonzero}
    .fil0 {fill:#FF5000;fill-rule:nonzero}
    .fil3 {fill:#FF8C44;fill-rule:nonzero}
    .fil1 {fill:url(#id0);fill-rule:nonzero}
    .fil2 {fill:url(#id1);fill-rule:nonzero}
   ]]>
  </style>
  <linearGradient id="id0" gradientUnits="userSpaceOnUse" x1="3105.66" y1="2437.84" x2="4258.78" y2="-34.88">
   <stop offset="0" style="stop-color:#D41F2B"/>
   <stop offset="0.101961" style="stop-color:#DB3D28"/>
   <stop offset="0.2" style="stop-color:#E45926"/>
   <stop offset="0.321569" style="stop-color:#E97023"/>
   <stop offset="0.431373" style="stop-color:#EF8521"/>
   <stop offset="0.54902" style="stop-color:#F4931F"/>
   <stop offset="0.678431" style="stop-color:#F69E1D"/>
   <stop offset="0.819608" style="stop-color:#F7A51C"/>
   <stop offset="1" style="stop-color:#F9A71C"/>
  </linearGradient>
  <linearGradient id="id1" gradientUnits="userSpaceOnUse" xlink:href="#id0" x1="1307.23" y1="8.01" x2="153.76" y2="2481.48">
  </linearGradient>
 </defs>
 <g id="Layer_x0020_1">
  <metadata id="CorelCorpID_0Corel-Layer"/>
 </g>
 <g id="Layer_x0020_1_0">
  <metadata id="CorelCorpID_1Corel-Layer"/>
  <g id="Namecheap_x0020_Logo.cdr">
   <path class="fil0" d="M4000 0c-150,0 -288,81 -361,213l-8 17 -322 638 -409 807 268 529 15 29c41,73 104,132 179,170 75,-37 138,-97 179,-170l15 -29 804 -1586 19 -38c91,-209 -5,-452 -213,-543 -52,-23 -108,-34 -164,-34l-1 -2z"/>
   <path class="fil0" d="M1516 768l-268 -525 -15 -29c-41,-73 -103,-132 -178,-169 -75,37 -137,96 -179,169l-15 29 -805 1584 -19 38c-93,208 0,452 209,545 196,87 426,10 530,-178l9 -17 324 -638 409 -806 -1 -3z"/>
   <path class="fil1" d="M3999 0c-150,0 -288,81 -361,213l-9 17 -324 638 -410 807 269 529 15 29c41,73 104,132 179,170 75,-37 138,-96 179,-170l15 -29 806 -1586 19 -38c91,-209 -5,-452 -213,-543 -52,-23 -108,-34 -164,-34l-1 -2z"/>
   <path class="fil2" d="M414 2446c149,0 287,-80 361,-210l9 -17 324 -638 409 -807 -268 -531 -15 -29c-42,-73 -104,-132 -180,-170 -75,37 -138,96 -179,170l-15 29 -807 1586 -19 38c-91,209 5,452 213,543 52,23 108,34 164,34l2 2z"/>
   <path class="fil3" d="M1516 768l-268 -525 -15 -29c-41,-73 -104,-132 -179,-170 25,-12 51,-22 78,-29 34,-9 70,-13 105,-13l561 0c149,0 286,81 360,210l15 29 725 1436 267 525 15 29c42,74 105,134 181,171 -57,28 -119,42 -182,43l-564 0c-149,-1 -286,-81 -360,-210l-15 -29 -724 -1438z"/>
   <path class="fil4" d="M5094 1251c-2,-22 13,-42 35,-44 3,0 6,0 9,0l32 0c22,-2 41,15 42,36 0,3 0,5 0,8l0 102c0,21 -2,43 -7,64l4 0c63,-141 203,-231 357,-230 220,0 297,125 297,343l0 519c2,22 -13,42 -35,44 -3,0 -6,0 -9,0l-33 0c-21,2 -40,-13 -43,-35 0,-3 0,-6 0,-10l0 -487c0,-139 -23,-263 -193,-263 -188,0 -336,155 -336,361l0 389c3,21 -12,41 -33,44 -3,0 -6,1 -10,0l-33 0c-22,2 -42,-13 -44,-35 0,-3 0,-6 0,-9l0 -797z"/>
   <path class="fil4" d="M6506 1550l52 0 0 -28c0,-171 -93,-229 -218,-229 -76,1 -150,22 -215,62 -19,13 -45,8 -58,-11 -1,-1 -1,-2 -2,-3l-11 -18c-14,-17 -11,-42 7,-56 2,-1 4,-3 6,-4 85,-51 182,-78 281,-77 210,0 329,118 329,340l0 525c3,21 -12,41 -33,44 -3,0 -6,1 -10,0l-28 0c-22,3 -41,-12 -44,-34 0,-3 0,-7 0,-10l0 -73c0,-22 2,-45 5,-67l-5 0c-50,122 -167,203 -299,205 -150,0 -299,-88 -299,-258 0,-291 370,-307 540,-307zm-220 460l0 0c171,0 271,-176 271,-331l0 -42 -49 0c-139,0 -420,5 -420,204 1,85 67,169 198,169z"/>
   <path class="fil4" d="M6847 1251c-2,-22 13,-42 35,-44 3,0 6,0 9,0l31 0c22,-2 41,15 42,36 0,3 0,5 0,8l0 102c0,21 -2,43 -7,64l4 0c55,-133 182,-222 325,-230 163,0 248,76 272,222l2 0c58,-129 184,-215 326,-222 215,0 293,125 293,343l0 519c2,22 -13,42 -35,44 -3,0 -6,0 -8,0l-32 0c-22,2 -42,-13 -44,-35 0,-3 0,-6 0,-9l0 -489c0,-144 -29,-263 -190,-263 -178,0 -298,186 -298,368l0 383c3,21 -11,41 -32,44 -3,1 -7,1 -10,0l-34 0c-22,2 -42,-13 -44,-35 0,-3 0,-6 0,-9l0 -488c0,-133 -19,-263 -186,-263 -180,0 -302,190 -302,368l0 383c3,21 -12,41 -33,44 -3,0 -6,1 -10,0l-33 0c-22,2 -42,-13 -44,-35 0,-3 0,-6 0,-9l2 -796z"/>
   <path class="fil4" d="M8731 1186c236,0 368,171 368,420 0,24 -20,44 -44,44 -1,0 -1,0 -2,0l-635 0c5,225 160,354 343,354 84,0 166,-29 232,-81 15,-14 38,-13 52,1 3,3 5,6 6,9l14 22c13,19 8,44 -11,57 0,0 -1,1 -1,1 -85,65 -188,102 -296,103 -247,8 -453,-185 -461,-432 0,-11 0,-22 0,-33 0,-290 195,-465 435,-465zm248 376l0 0c-7,-186 -120,-278 -252,-278 -158,0 -290,121 -304,278l556 0z"/>
   <path class="fil4" d="M9670 1186c107,-1 210,34 294,100 18,11 23,35 12,52 -2,3 -4,5 -6,8l-12 19c-16,25 -35,25 -60,9 -63,-51 -142,-80 -224,-81 -188,-2 -343,149 -345,337 0,7 0,14 0,20 -8,188 138,347 327,355 7,0 13,0 20,0 91,-1 179,-34 248,-93 13,-14 35,-15 50,-2 4,3 7,8 9,12l12 18c14,19 9,45 -10,59 0,0 -1,0 -1,1 -88,73 -200,113 -315,113 -247,9 -455,-184 -464,-431 0,-11 0,-21 0,-32 -8,-249 188,-457 437,-465 10,0 19,0 29,0z"/>
   <path class="fil4" d="M10115 899c-3,-21 11,-41 32,-44 3,-1 7,-1 10,0l34 0c22,-2 42,13 44,35 0,3 0,6 0,9l0 442c0,24 -2,48 -7,72l3 0c64,-138 202,-227 354,-227 220,0 297,125 297,343l0 519c0,28 -14,44 -42,44l-34 0c-22,2 -42,-13 -44,-35 0,-3 0,-6 0,-9l0 -487c0,-139 -21,-263 -193,-263 -186,0 -334,153 -334,368l0 383c2,22 -13,42 -35,44 -3,0 -6,0 -9,0l-34 0c-21,2 -40,-13 -42,-34 0,-3 0,-7 0,-10l0 -1150z"/>
   <path class="fil4" d="M11433 1186c236,0 367,171 367,420 0,24 -20,44 -44,44 -1,0 -1,0 -2,0l-635 0c5,225 160,354 343,354 84,0 166,-29 233,-81 14,-14 37,-13 51,1 3,3 5,6 7,9l14 22c13,19 8,44 -11,57 0,0 -1,1 -1,1 -85,65 -189,101 -296,103 -247,9 -454,-184 -463,-431 0,-11 0,-21 0,-32 0,-293 197,-467 436,-467zm248 376l0 0c-7,-186 -120,-278 -252,-278 -158,0 -290,121 -304,278l556 0z"/>
   <path class="fil4" d="M12397 1550l53 0 0 -28c0,-171 -93,-229 -218,-229 -76,1 -150,22 -214,62 -19,13 -45,8 -58,-12 -1,-1 -1,-2 -2,-3l-11 -18c-14,-17 -11,-42 6,-56 2,-1 4,-3 6,-4 85,-51 182,-78 281,-77 210,0 329,118 329,340l0 525c3,21 -12,41 -33,44 -3,0 -6,1 -10,0l-31 0c-22,3 -41,-12 -44,-34 0,-3 0,-7 0,-10l0 -73c0,-22 2,-45 5,-67l-4 0c-49,121 -166,202 -297,205 -150,0 -299,-88 -299,-258 0,-291 370,-307 540,-307zm-220 460l0 0c171,0 271,-176 271,-331l0 -42 -49 0c-139,0 -420,5 -420,204 1,85 66,169 198,169z"/>
   <path class="fil4" d="M12740 1251c-3,-21 12,-41 33,-44 3,0 6,-1 10,0l28 0c21,-3 40,12 42,33 0,3 0,5 0,8l0 64c0,20 -2,40 -5,60l3 0c57,-118 179,-190 310,-185 238,0 385,190 385,465 0,275 -167,465 -398,465 -124,1 -238,-68 -292,-180l-3 0c5,26 7,52 7,78l0 389c2,22 -13,42 -35,44 -3,0 -6,0 -9,0l-33 0c-21,2 -40,-13 -43,-35 0,-3 0,-6 0,-10l0 -1151zm396 755l0 0c157,0 287,-130 287,-355 0,-217 -117,-355 -280,-355 -148,0 -287,105 -287,357 0,177 99,354 280,354z"/>
  </g>
 </g>
</svg>
