<?xml version="1.0" standalone="no"?>
<!DOCTYPE svg PUBLIC "-//W3C//DTD SVG 20010904//EN"
 "http://www.w3.org/TR/2001/REC-SVG-20010904/DTD/svg10.dtd">
<svg version="1.0" xmlns="http://www.w3.org/2000/svg"
 width="1024.000000pt" height="152.000000pt" viewBox="0 0 1024.000000 152.000000"
 preserveAspectRatio="xMidYMid meet">

<g transform="translate(0.000000,152.000000) scale(0.100000,-0.100000)"
fill="#000000" stroke="none">
<path d="M1144 1509 c-63 -18 -48 13 -414 -864 -103 -247 -200 -483 -216 -522
-26 -71 -27 -74 -9 -93 17 -19 31 -20 239 -20 201 0 224 2 253 20 17 10 37 28
43 40 40 74 580 1388 578 1404 -6 39 -41 46 -248 45 -107 0 -209 -5 -226 -10z"/>
<path d="M2560 1182 c-133 -35 -237 -122 -298 -250 -36 -74 -37 -81 -37 -188
0 -107 1 -112 37 -185 91 -184 283 -287 482 -258 138 19 255 99 310 212 29 58
53 197 42 240 l-6 27 -205 0 -205 0 0 -55 0 -54 148 -3 147 -3 -3 -25 c-7 -53
-56 -134 -103 -167 -130 -92 -307 -77 -420 36 -76 77 -103 146 -97 256 4 60
11 92 30 130 92 179 313 238 479 128 l40 -26 39 38 40 39 -22 23 c-31 33 -133
81 -197 93 -74 14 -125 12 -201 -8z"/>
<path d="M5080 740 l0 -430 60 0 60 0 0 430 0 430 -60 0 -60 0 0 -430z"/>
<path d="M9011 1094 c-27 -35 -26 -59 4 -89 45 -46 115 -19 115 45 0 65 -79
94 -119 44z"/>
<path d="M6170 710 l0 -400 139 0 c76 0 162 5 191 10 125 24 222 96 276 206
27 56 29 66 29 184 0 114 -2 130 -26 180 -32 69 -75 119 -137 159 -74 47 -145
61 -319 61 l-153 0 0 -400z m364 289 c56 -19 129 -89 156 -150 16 -38 22 -72
22 -128 1 -127 -28 -195 -110 -258 -57 -43 -106 -55 -232 -57 l-105 -1 -3 295
c-1 162 0 301 3 309 4 11 27 12 118 8 61 -3 129 -11 151 -18z"/>
<path d="M9959 869 c-57 -9 -95 -28 -134 -69 -26 -27 -30 -39 -30 -85 0 -46 4
-58 30 -85 40 -42 66 -55 166 -80 109 -28 129 -41 129 -85 0 -43 -26 -72 -74
-81 -63 -11 -107 4 -152 52 l-41 44 -37 -15 c-20 -8 -36 -21 -36 -29 0 -27 80
-104 127 -122 68 -26 158 -23 219 7 64 32 94 76 94 141 0 95 -44 134 -195 172
-131 33 -167 73 -112 124 47 45 135 41 191 -8 33 -29 34 -30 70 -15 20 8 36
19 36 24 0 17 -52 71 -82 87 -41 21 -114 31 -169 23z"/>
<path d="M3315 847 c-178 -86 -221 -325 -83 -466 114 -117 312 -112 423 11
127 141 84 365 -88 455 -20 11 -63 18 -117 20 -74 4 -92 1 -135 -20z m201
-103 c37 -18 78 -77 89 -130 10 -49 -14 -122 -51 -160 -108 -107 -283 -26
-284 131 0 54 37 124 79 152 41 28 117 31 167 7z"/>
<path d="M3960 849 c-98 -44 -160 -132 -168 -239 -5 -77 8 -132 46 -188 55
-82 142 -126 248 -125 109 1 199 58 252 158 22 42 26 63 26 130 0 67 -4 88
-27 131 -32 63 -94 118 -155 138 -65 23 -167 20 -222 -5z m212 -114 c43 -32
72 -93 72 -150 -1 -118 -99 -203 -203 -175 -110 29 -162 154 -108 260 33 67
78 93 152 88 40 -2 70 -10 87 -23z"/>
<path d="M4615 857 c-116 -45 -185 -145 -185 -270 0 -75 12 -116 53 -175 78
-115 255 -153 347 -75 l30 25 0 -51 c0 -92 -43 -153 -116 -167 -61 -11 -105 4
-151 52 -36 37 -46 42 -65 35 -13 -5 -36 -14 -51 -20 -27 -10 -27 -12 -13 -39
38 -74 127 -131 216 -139 135 -13 249 61 283 183 14 50 17 109 17 352 l0 292
-60 0 c-58 0 -60 -1 -60 -27 0 -24 -1 -25 -17 -11 -53 47 -157 62 -228 35z
m191 -129 c46 -41 64 -83 64 -150 0 -74 -31 -126 -92 -156 -63 -31 -115 -24
-169 25 -46 42 -63 88 -57 158 8 94 72 155 165 155 45 0 58 -5 89 -32z"/>
<path d="M5434 851 c-54 -25 -112 -83 -137 -140 -16 -35 -21 -66 -21 -126 1
-94 17 -137 75 -200 108 -118 304 -118 418 -2 l33 35 -46 32 -47 31 -34 -30
c-47 -41 -107 -57 -159 -41 -42 13 -100 63 -94 81 2 6 88 46 191 88 106 43
187 82 187 89 1 47 -78 144 -142 176 -65 33 -161 35 -224 7z m188 -102 c10 -5
22 -18 28 -29 9 -17 7 -22 -12 -29 -13 -5 -72 -30 -132 -55 -60 -25 -111 -44
-114 -41 -3 2 1 24 8 49 14 50 62 102 106 116 31 10 88 4 116 -11z"/>
<path d="M7034 846 c-207 -96 -205 -427 3 -526 35 -17 67 -23 118 -24 156 -1
268 103 282 264 11 117 -48 231 -146 282 -72 38 -181 40 -257 4z m168 -66
c145 -41 187 -253 70 -352 -126 -106 -292 -16 -292 157 0 97 40 158 125 192
38 15 52 15 97 3z"/>
<path d="M7705 853 c-16 -8 -45 -29 -62 -46 l-33 -31 0 42 0 42 -45 0 -45 0 0
-275 0 -275 50 0 50 0 0 175 c0 194 6 223 58 267 41 34 79 42 127 26 70 -23
79 -52 83 -275 l4 -193 43 0 43 0 4 178 c3 159 5 181 25 218 12 23 34 49 49
59 34 22 102 25 137 6 50 -27 57 -61 57 -270 l0 -191 51 0 51 0 -4 213 c-3
205 -4 214 -28 256 -37 65 -68 84 -146 89 -81 5 -143 -16 -182 -64 l-28 -34
-23 31 c-37 49 -78 69 -146 69 -35 -1 -73 -7 -90 -17z"/>
<path d="M8560 859 c-30 -12 -110 -88 -110 -105 0 -7 18 -19 41 -28 l40 -16
24 28 c78 92 255 40 255 -75 l0 -32 -35 15 c-41 17 -168 19 -216 3 -146 -49
-183 -224 -66 -313 85 -65 233 -50 296 30 l21 27 0 -42 0 -41 51 0 51 0 -4
203 c-3 183 -5 206 -25 242 -26 50 -47 69 -103 94 -49 23 -174 28 -220 10z
m220 -292 c43 -22 39 -68 -11 -122 -65 -70 -155 -84 -215 -32 -49 42 -26 130
41 157 31 13 157 11 185 -3z"/>
<path d="M9412 855 c-19 -8 -47 -29 -63 -46 l-29 -31 0 41 0 41 -50 0 -50 0 0
-275 0 -275 49 0 50 0 3 177 c3 198 13 234 71 275 37 27 108 29 153 5 54 -28
64 -71 64 -277 l0 -180 50 0 50 0 0 175 c0 238 -17 302 -93 359 -37 27 -156
34 -205 11z"/>
<path d="M9010 585 l0 -275 50 0 50 0 0 275 0 275 -50 0 -50 0 0 -275z"/>
</g>
</svg>
